<?xml version="1.0" encoding="utf-8"?>
<!-- Generator: Adobe Illustrator 23.0.2, SVG Export Plug-In . SVG Version: 6.00 Build 0)  -->
<svg version="1.1" id="Layer_1" xmlns="http://www.w3.org/2000/svg" xmlns:xlink="http://www.w3.org/1999/xlink" x="0px" y="0px"
	 viewBox="0 0 132.4 98.6" style="enable-background:new 0 0 132.4 98.6;" xml:space="preserve">
<style type="text/css">
	.st0{display:none;fill:#FFFFFF;}
	.st1{fill:#88ED8F;}
	.st2{fill:#656565;}
	.st3{font-family:'Avenir-Medium';}
	.st4{font-size:31px;}
	.st5{font-family:'Avenir-Black';}
	.st6{font-size:30px;}
</style>
<g id="Group_110" transform="translate(-9823.128 406.813)">
	<path id="Path_128" class="st0" d="M9813.8-363.6l48.6-48.6l50,50l-48.6,48.6L9813.8-363.6z"/>
	<path id="Path_124" class="st1" d="M9853-374c-1.9,5.4-1.3,18-9.4,18.3c-7.5,0.3-14.1-8.2-14.1-18.3s6.3-18.3,14.1-18.3
		S9857.6-386.9,9853-374z"/>
	<path id="Path_125" class="st1" d="M9849.8-346.5c0,2.1-2.8,3.9-6.2,3.9s-6.2-1.7-6.2-3.9c0-2.1,2.8-3.9,6.2-3.9
		S9849.8-348.6,9849.8-346.5z"/>
	<path id="Path_126" class="st1" d="M9862.4-342.9c1.9,5.4,1.3,18,9.4,18.3c7.5,0.3,14.1-8.2,14.1-18.3c0-10.1-6.3-18.3-14.1-18.3
		S9857.8-355.9,9862.4-342.9z"/>
	<ellipse id="Ellipse_1" class="st1" cx="9871.8" cy="-315.4" rx="6.2" ry="3.9"/>
	<text transform="matrix(1 0 0 1 9849.7607 -362.5756)" class="st2 st3 st4">Lighter</text>
	<text transform="matrix(1 0 0 1 9869.8574 -330.1445)" class="st2 st5 st6">Steps</text>
</g>
</svg>
