<?xml version="1.0" encoding="utf-8"?>
<!-- Generator: Adobe Illustrator 23.0.2, SVG Export Plug-In . SVG Version: 6.00 Build 0)  -->
<svg version="1.1" id="Layer_1" xmlns="http://www.w3.org/2000/svg" xmlns:xlink="http://www.w3.org/1999/xlink" x="0px" y="0px"
	 viewBox="0 0 1000 916" style="enable-background:new 0 0 1000 916;" xml:space="preserve">
<style type="text/css">
	.st0{clip-path:url(#SVGID_2_);}
	.st1{fill:#FFFFFF;}
	.st2{fill:#56B2AB;}
	.st3{opacity:0.177;fill:#B5B5B5;enable-background:new    ;}
	.st4{fill:#595959;}
	.st5{fill:#DDDDDD;}
</style>
<g>
	<defs>
		<rect id="SVGID_1_" width="1000" height="916"/>
	</defs>
	<clipPath id="SVGID_2_">
		<use xlink:href="#SVGID_1_"  style="overflow:visible;"/>
	</clipPath>
	<g id="Web_1920_3" class="st0">
		<rect class="st1" width="1000" height="916"/>
		<path id="chuttersnap-gts_Eh4g1lk-unsplashbw" class="st1" d="M20,109.9h400.8v758.8H20V109.9z"/>
		<path id="Path_21" class="st2" d="M113.4,540.5h16.8c-1.7,2.2-3.3,4.5-4.9,6.9c-15.9,24.1-24,52.5-23.2,81.4v160.8
			c0,18.5,15,33.5,33.5,33.5h0h43.5c18.5,0,33.5-15,33.5-33.5l0,0v-25.2H591v25.2c0,18.5,15,33.5,33.5,33.5h43.5
			c18.5,0,33.5-15,33.5-33.5V628.9c0.8-28.9-7.3-57.3-23.2-81.4c-1.6-2.3-3.2-4.6-4.9-6.9h16.8c18.3-0.6,33-15.3,33.5-33.5
			c0-9.2,0-16.8,0-23.9c-0.4-17.9-14.8-32.4-32.7-32.9h-12.4c-14.2,0.7-27.6,6.7-37.6,16.8c-16-39.8-36.2-85.1-48.8-103.3
			c-18.5-25.2-46.7-41.5-77.7-45.2c-37.3-5.9-75.1-8.5-112.9-7.9l0,0c-37.8-0.9-75.5,1.6-112.9,7.3c-31,3.7-59.2,20-77.7,45.2
			c-12.7,18.2-32.8,63.4-48.8,103.3c-10-10.1-23.4-16.1-37.6-16.8h-12.4c-17.9,0.4-32.3,14.9-32.7,32.9v23.9
			C79.9,525,94.8,540,113.4,540.5z M521.3,594.5l61.5-16.2c14-3.7,28.3,4.7,31.9,18.7c0.6,2.1,0.8,4.3,0.9,6.5v16.2
			c0.1,14.4-11.5,26.3-25.9,26.4c-0.1,0-0.2,0-0.3,0h-62c-14.4,0-26.2-11.7-26.2-26.1c0-11.9,8-22.4,19.6-25.4L521.3,594.5z
			 M187.8,603.6c0.1-14.4,11.9-26.1,26.3-26c2.2,0,4.4,0.3,6.5,0.9l61.5,16.2c13.9,3.8,22.2,18.2,18.4,32.1c-3,11.2-13,19-24.6,19.3
			h-62c-14.4,0-26.2-11.7-26.2-26.2l0,0L187.8,603.6z"/>
		<path id="chuttersnap-gts_Eh4g1lk-unsplashbw-2" class="st3" d="M87,109.9h425.3v758.8H87V109.9z"/>
		<path class="st4" d="M77.3,60.3V48.4h8.1v33h-8.1V69.5H43.7v-9.2H77.3z"/>
		<path class="st4" d="M85.5,86.1v16.2c0,2.1-0.2,4.1-0.6,6c-0.4,1.9-1.1,3.6-2.1,5c-1,1.4-2.3,2.6-3.9,3.4
			c-1.6,0.8-3.7,1.3-6.1,1.3c-3,0-5.5-0.8-7.5-2.3c-2.1-1.5-3.4-3.8-3.9-6.7l-17.6,10.6v-11l16.7-8.7v-4.5H43.7v-9.2H85.5z
			 M68.2,95.3v5.4c0,0.8,0,1.7,0.1,2.6c0.1,0.9,0.2,1.8,0.5,2.5c0.3,0.7,0.8,1.4,1.4,1.9c0.6,0.5,1.5,0.7,2.7,0.7
			c1.1,0,1.9-0.2,2.5-0.6c0.6-0.4,1.1-1,1.4-1.7c0.3-0.7,0.6-1.4,0.7-2.3c0.1-0.9,0.2-1.7,0.2-2.5v-6H68.2z"/>
		<path class="st4" d="M85.5,138.1v7.6l-41.8,18.2v-10.4l8.8-3.6v-16.2l-8.8-3.5V120L85.5,138.1z M73.3,141.6l-13-5.1v10.2
			L73.3,141.6z"/>
		<path class="st4" d="M85.5,168.1v12.5l-29,17.8v0.1h29v9.2H43.7v-12l29.7-18.2v-0.1H43.7v-9.2H85.5z"/>
		<path class="st4" d="M75.3,236.8c0.9-0.7,1.6-1.8,2.1-3c0.5-1.3,0.7-2.5,0.7-3.6c0-0.7-0.1-1.4-0.2-2.1s-0.4-1.4-0.7-2
			c-0.3-0.6-0.8-1.1-1.3-1.5c-0.6-0.4-1.2-0.6-2-0.6c-1.3,0-2.2,0.5-2.9,1.4c-0.7,0.9-1.2,2.1-1.7,3.6c-0.5,1.4-0.9,3-1.4,4.6
			c-0.5,1.7-1.1,3.2-2,4.6c-0.9,1.4-2,2.6-3.5,3.6c-1.5,0.9-3.4,1.4-5.8,1.4c-2.3,0-4.3-0.4-6.1-1.3c-1.7-0.9-3.2-2-4.3-3.5
			s-2-3.2-2.5-5.1c-0.5-1.9-0.8-4-0.8-6.2c0-2.7,0.4-5.2,1.2-7.6c0.8-2.3,2.2-4.5,4-6.5l7.2,6.5c-1.3,0.9-2.2,2.1-2.9,3.6
			c-0.7,1.4-1,2.9-1,4.5c0,0.7,0.1,1.5,0.3,2.3c0.2,0.8,0.4,1.5,0.8,2.1c0.4,0.6,0.8,1.1,1.4,1.5c0.6,0.4,1.2,0.6,1.9,0.6
			c1.3,0,2.3-0.5,3-1.4c0.7-1,1.3-2.2,1.9-3.6c0.5-1.5,1-3,1.5-4.7c0.5-1.7,1.2-3.3,2.1-4.7c0.9-1.5,2-2.7,3.4-3.6
			c1.4-1,3.3-1.4,5.6-1.4c2.2,0,4.2,0.4,5.9,1.3c1.7,0.9,3.1,2.1,4.2,3.5c1.1,1.5,2,3.2,2.6,5.1c0.6,1.9,0.9,3.9,0.9,6
			c0,2.4-0.3,4.6-1,6.8c-0.7,2.2-1.8,4.2-3.4,6L75.3,236.8z"/>
		<path class="st4" d="M85.5,250v15.5c0,2.2-0.2,4.2-0.6,6.1c-0.4,1.9-1.1,3.6-2,5c-1,1.4-2.3,2.6-3.9,3.4c-1.6,0.8-3.7,1.3-6.2,1.3
			c-2.4,0-4.5-0.4-6.1-1.2c-1.7-0.8-3-1.9-4-3.2c-1-1.4-1.7-3-2.1-4.9s-0.6-3.9-0.6-6.1v-6.7H43.7V250H85.5z M67.8,259.2v6.1
			c0,0.8,0.1,1.6,0.2,2.4s0.4,1.5,0.8,2.1c0.4,0.6,0.9,1.1,1.5,1.5c0.6,0.4,1.5,0.6,2.4,0.6c1.1,0,1.9-0.2,2.6-0.7
			c0.6-0.5,1.2-1.1,1.5-1.9c0.4-0.8,0.6-1.6,0.7-2.6c0.1-0.9,0.1-1.8,0.1-2.7v-4.7H67.8z"/>
		<path class="st4" d="M64.6,284.9c3.3,0,6.4,0.6,9.1,1.7s5,2.7,6.9,4.7c1.9,2,3.4,4.4,4.4,7.1c1,2.8,1.5,5.8,1.5,9
			c0,3.3-0.5,6.3-1.5,9c-1,2.8-2.5,5.1-4.4,7.1c-1.9,2-4.2,3.6-6.9,4.7s-5.7,1.7-9.1,1.7c-3.3,0-6.4-0.6-9.1-1.7s-5-2.7-6.9-4.7
			c-1.9-2-3.4-4.4-4.4-7.1c-1-2.8-1.5-5.8-1.5-9c0-3.3,0.5-6.3,1.5-9c1-2.8,2.5-5.1,4.4-7.1c1.9-2,4.2-3.6,6.9-4.7
			S61.2,284.9,64.6,284.9z M64.6,294.5c-2,0-3.8,0.3-5.4,0.9c-1.6,0.6-3,1.5-4.2,2.6c-1.2,1.1-2.1,2.5-2.8,4.1c-0.7,1.6-1,3.4-1,5.3
			c0,2,0.3,3.7,1,5.3c0.7,1.6,1.6,3,2.8,4.1c1.2,1.1,2.6,2,4.2,2.6c1.6,0.6,3.4,0.9,5.4,0.9c1.9,0,3.7-0.3,5.4-0.9
			c1.7-0.6,3.1-1.5,4.3-2.6c1.2-1.1,2.1-2.5,2.8-4.1c0.7-1.6,1-3.4,1-5.3c0-2-0.3-3.7-1-5.3c-0.7-1.6-1.6-3-2.8-4.1
			c-1.2-1.1-2.6-2-4.3-2.6C68.3,294.8,66.5,294.5,64.6,294.5z"/>
		<path class="st4" d="M85.5,336.3v16.2c0,2.1-0.2,4.1-0.6,6c-0.4,1.9-1.1,3.6-2.1,5c-1,1.4-2.3,2.6-3.9,3.4
			c-1.6,0.8-3.7,1.3-6.1,1.3c-3,0-5.5-0.8-7.5-2.3c-2.1-1.5-3.4-3.8-3.9-6.7l-17.6,10.6v-11l16.7-8.7v-4.5H43.7v-9.2H85.5z
			 M68.2,345.5v5.4c0,0.8,0,1.7,0.1,2.6c0.1,0.9,0.2,1.8,0.5,2.5c0.3,0.7,0.8,1.4,1.4,1.9c0.6,0.5,1.5,0.7,2.7,0.7
			c1.1,0,1.9-0.2,2.5-0.6c0.6-0.4,1.1-1,1.4-1.7c0.3-0.7,0.6-1.4,0.7-2.3c0.1-0.9,0.2-1.7,0.2-2.5v-6H68.2z"/>
		<path class="st4" d="M77.3,381.5v-11.9h8.1v33h-8.1v-11.9H43.7v-9.2H77.3z"/>
		<path id="Path_37" class="st5" d="M328.2,549.7v-54c2.5,4.5,5.6,8.7,9.2,12.4l68.6,68.6c9.4,9.4,21.9,15.1,35.2,16v111.8
			c0,1.5-0.6,2.9-1.7,4L411,737.1c-1.4,1.5-3.8,1.5-5.3,0.1c0,0-0.1-0.1-0.1-0.1L377,708.6c-1.1-1.1-1.7-2.6-1.7-4.1v-14.2
			c0-1.7,0.7-3.4,1.9-4.6l15.3-15.3c1-1,1-2.6,0-3.6c0,0,0,0,0,0L379,653.3c-3.4-3.4-3.4-8.9,0-12.2l13.6-13.6c1-1,1-2.6,0-3.6
			c0,0,0,0,0,0l-15.3-15.3c-1.2-1.2-1.9-2.9-2-4.7v-19.8h-12.7c-19,0-34.4-15.4-34.4-34.4C328.2,549.8,328.2,549.7,328.2,549.7z
			 M352.2,493.4c-13.5-13.4-13.6-35.2-0.2-48.7c0.1-0.1,0.1-0.1,0.2-0.2l64.5-64.4c13.4-13.5,35.2-13.5,48.7-0.1
			c0,0,0.1,0.1,0.1,0.1l68.3,68.5c13.5,13.4,13.6,35.2,0.2,48.7c-0.1,0.1-0.1,0.1-0.2,0.2l-9,9l85.2,85.1c1,1,1.6,2.5,1.7,3.9v40.4
			c0,2.1-1.7,3.8-3.8,3.8h-40.3c-1.5,0-2.9-0.6-4-1.7l-10.1-10.1c-1.2-1.2-1.9-2.9-1.9-4.7v-21.6c-0.1-1.4-1.2-2.5-2.6-2.4
			c0,0-0.1,0-0.1,0h-19.2c-4.8,0-8.7-3.9-8.7-8.7v-19.3c0-1.4-1.1-2.5-2.5-2.5H497c-1.8,0-3.5-0.7-4.7-2l-13.9-13.9l-9,9
			c-13.4,13.5-35.2,13.5-48.7,0.1c0,0-0.1-0.1-0.1-0.1L352.2,493.4z M403.9,457.5c0-10-8.1-18-18-18s-18,8.1-18,18
			c0,10,8.1,18,18,18C395.9,475.5,403.9,467.5,403.9,457.5L403.9,457.5z"/>
	</g>
</g>
</svg>
