<?xml version="1.0" encoding="utf-8"?>
<!-- Generator: Adobe Illustrator 23.0.2, SVG Export Plug-In . SVG Version: 6.00 Build 0)  -->
<svg version="1.1" id="Layer_1" xmlns="http://www.w3.org/2000/svg" xmlns:xlink="http://www.w3.org/1999/xlink" x="0px" y="0px"
	 viewBox="0 0 1000 1019" style="enable-background:new 0 0 1000 1019;" xml:space="preserve">
<style type="text/css">
	.st0{clip-path:url(#SVGID_2_);}
	.st1{fill:#FFFFFF;}
	.st2{opacity:0.177;fill:#B5B5B5;enable-background:new    ;}
	.st3{fill:#595959;}
	.st4{font-family:'Avenir-Black';}
	.st5{font-size:59px;}
	.st6{fill:#E6B547;}
	.st7{fill:#60605A;}
</style>
<g>
	<defs>
		<rect id="SVGID_1_" width="1000" height="1019"/>
	</defs>
	<clipPath id="SVGID_2_">
		<use xlink:href="#SVGID_1_"  style="overflow:visible;"/>
	</clipPath>
	<g id="Web_1920_7" class="st0">
		<rect class="st1" width="1000" height="1019"/>
		<path id="chuttersnap-gts_Eh4g1lk-unsplashbw" class="st1" d="M20,110h400.8v878.6H20V110z"/>
		<path id="chuttersnap-gts_Eh4g1lk-unsplashbw-2" class="st2" d="M87,110h425.3v878.6H87V110z"/>
		<text transform="matrix(6.123234e-17 1 -1 6.123234e-17 43.7031 48.109)" class="st3 st4 st5">ENERGY</text>
		<g id="noun_Power_486723" transform="matrix(1, 0.017, -0.017, 1, 65.766, 214.587)">
			<path id="Path_38" class="st6" d="M433.8,244.1c-1-2.2-3.2-3.6-5.7-3.6H295l60.7-227.6c0.9-3.4-1.1-6.8-4.5-7.7
				c-2.4-0.6-4.9,0.2-6.5,2.1L77.8,337.1c-2.2,2.7-1.8,6.7,0.9,8.8c1.1,0.9,2.5,1.4,3.9,1.4h133.1l-60.7,227.6
				c-0.9,3.4,1.1,6.8,4.5,7.7c2.4,0.6,4.9-0.2,6.5-2.1L433,250.8C434.5,248.9,434.8,246.3,433.8,244.1z"/>
		</g>
		<g id="noun_Power_486723-2" transform="translate(47.112 173.708) rotate(-14)">
			<path id="Path_38-2" class="st6" d="M227.9,106.4c-0.4-0.9-1.4-1.5-2.4-1.5h-56.5l25.7-96.5c0.4-1.4-0.5-2.9-1.9-3.3
				c-1-0.3-2.1,0.1-2.8,0.9L77,145.8c-0.9,1.1-0.7,2.8,0.4,3.7c0.5,0.4,1.1,0.6,1.7,0.6h56.5l-25.7,96.5c-0.4,1.4,0.5,2.9,1.9,3.3
				c1,0.3,2.1-0.1,2.8-0.9l113.2-139.8C228.2,108.4,228.4,107.3,227.9,106.4z"/>
		</g>
		<g id="noun_Plug_75476" transform="translate(1270.076 481.74)">
			<g id="Group_64" transform="matrix(0.848, -0.53, 0.53, 0.848, -1208.146, 179.963)">
				<path id="Path_40" class="st7" d="M58.4,14.6c0-8-5.7-14.6-12.6-14.6c-6.9,0-12.6,6.5-12.6,14.6l0,81.9h25.2V14.6z M152.1,14.6
					c0-8-5.7-14.6-12.6-14.6c-7,0-12.6,6.5-12.6,14.6v81.9h25.3L152.1,14.6z M102.6,283.7c37.2,0,67.4-30.2,67.4-67.4v-61.7
					c9.3-4.2,15.2-13.4,15.2-23.5V106H0l0,25.2c0,10.2,6,19.4,15.2,23.5l0,61.7c0,37.2,30.2,67.4,67.4,67.4c0,0,0,0,0,0H102.6z
					 M164.1,427.8c-35-0.1-63.3-28.4-63.4-63.4v-41.4c5.3-2.3,8.7-7.5,8.7-13.3v-18c-2.2,0.2-4.5,0.4-6.7,0.4h-20
					c-2.2,0-4.5-0.1-6.7-0.4v18c0,5.9,3.5,11.2,9,13.4v41.2c0,43.7,35.4,79.2,79.2,79.2c0,0,0,0,0,0c35,0.1,63.3,28.4,63.4,63.4
					h15.8C243.2,463.3,207.8,427.8,164.1,427.8C164.1,427.8,164.1,427.8,164.1,427.8L164.1,427.8z"/>
			</g>
		</g>
	</g>
</g>
</svg>
