<svg xmlns="http://www.w3.org/2000/svg" xmlns:xlink="http://www.w3.org/1999/xlink" width="1000" height="970" viewBox="0 0 1000 970">
  <defs>
    <clipPath id="clip-Web_1920_4">
      <rect width="1000" height="970"/>
    </clipPath>
  </defs>
  <g id="Web_1920_4" data-name="Web 1920 – 4" clip-path="url(#clip-Web_1920_4)">
    <rect width="1000" height="970" fill="#fff"/>
    <g id="Group_87" data-name="Group 87" transform="translate(20)">
      <path id="chuttersnap-gts_Eh4g1lk-unsplashbw" d="M0,0H400.835V815.671H0Z" transform="translate(0 109.988)" fill="#fff"/>
      <path id="chuttersnap-gts_Eh4g1lk-unsplashbw-2" data-name="chuttersnap-gts_Eh4g1lk-unsplashbw" d="M0,0H425.322V815.671H0Z" transform="translate(67 109.988)" fill="#b5b5b5" opacity="0.177"/>
      <text id="TRANSPORT" transform="translate(23.703 48.109) rotate(90)" font-size="59" font-family="Roboto-Bold, Roboto" font-weight="700"><tspan x="0" y="0">TRANSPORT</tspan></text>
      <path id="Path_105" data-name="Path 105" d="M493.559,489.195a18.565,18.565,0,0,1-15.116,7.787H21.046A18.536,18.536,0,0,1,3.52,472.366L52.969,329.7A18.589,18.589,0,0,1,70.5,317.227H98.311c2.264,2.878,4.237,5.819,6.642,8.667l24.974,28.42H83.7L47.1,459.9H452.391l-36.6-105.586H364.9l6.418-7.615c7.537-9.015,15.605-19.051,23.59-29.466H429A18.589,18.589,0,0,1,446.53,329.7l49.449,142.668A18.6,18.6,0,0,1,493.559,489.195Z" transform="translate(51.367 298.094)" fill="#b92e2e"/>
      <path id="Path_106" data-name="Path 106" d="M416.892,151.5C406.169,57.5,316.058-10.9,223.245,4.731,123.665,21.5,60.329,119.327,88.234,219.9c8.526,30.648,24.308,57.517,44.572,81.513L233.093,415.526c9.13,9.89,23.522,9.718,32.2-.578L342.864,322.9c18.088-21.622,35.671-43.619,49.839-68.224C411.265,222.457,421.129,188.634,416.892,151.5ZM249.744,277.017A105.079,105.079,0,1,1,354.821,171.936,105.076,105.076,0,0,1,249.744,277.017Z" transform="translate(51.367 298.094)" fill="#b92e2e"/>
    </g>
  </g>
</svg>
