<svg xmlns="http://www.w3.org/2000/svg" xmlns:xlink="http://www.w3.org/1999/xlink" width="1000" height="1006" viewBox="0 0 1000 1006">
  <defs>
    <clipPath id="clip-Web_1920_5">
      <rect width="1000" height="1006"/>
    </clipPath>
  </defs>
  <g id="Web_1920_5" data-name="Web 1920 – 5" clip-path="url(#clip-Web_1920_5)">
    <rect width="1000" height="1006" fill="#fff"/>
    <g id="Group_86" data-name="Group 86" transform="translate(20 20)">
      <path id="chuttersnap-gts_Eh4g1lk-unsplashbw" d="M0,0H400.835V878.607H0Z" transform="translate(0 89.988)" fill="#fff"/>
      <path id="chuttersnap-gts_Eh4g1lk-unsplashbw-2" data-name="chuttersnap-gts_Eh4g1lk-unsplashbw" d="M0,0H425.322V878.607H0Z" transform="translate(67 89.988)" fill="#b5b5b5" opacity="0.177"/>
      <g id="noun_Time_2511578" transform="translate(32.078 211.635)">
        <g id="Group_60" data-name="Group 60" transform="translate(13.633 4)">
          <path id="Path_31" data-name="Path 31" d="M50.436,23.787A256.748,256.748,0,0,1,306.042,252.423l2.266,20.469,45.084-45.084L339.4,213.819l-16.611,16.6A276.518,276.518,0,0,0,50.436,4c-6.846,0-13.752.247-20.509.742l1.444,19.737C37.654,24.014,44.065,23.787,50.436,23.787Z" transform="translate(252.52 -4)" fill="#576716"/>
          <path id="Path_32" data-name="Path 32" d="M304.334,281.927A256.757,256.757,0,0,1,48.728,53.29L46.462,32.821,1.378,77.905,15.367,91.895l16.611-16.6a276.518,276.518,0,0,0,272.355,226.42c6.866,0,13.782-.247,20.519-.752l-1.464-19.727C317.136,281.7,310.725,281.927,304.334,281.927Z" transform="translate(-1.378 252.317)" fill="#576716"/>
          <path id="Path_33" data-name="Path 33" d="M209.868,12C100.764,12,12,100.764,12,209.868s88.764,197.868,197.868,197.868,197.868-88.764,197.868-197.868S318.972,12,209.868,12Zm9.893,375.445V338.482H199.975v48.962c-90.287-5-162.687-77.4-167.683-167.683H81.254V199.975H32.291c5-90.287,77.4-162.687,167.683-167.683V81.254h19.787V32.291c90.287,5,162.687,77.4,167.683,167.683H338.482v19.787h48.962C382.448,310.049,310.049,382.448,219.761,387.445Z" transform="translate(93.088 67.147)" fill="#576716"/>
          <path id="Path_34" data-name="Path 34" d="M413.648,245.442C413.648,114.512,307.126,8,176.206,8A236.731,236.731,0,0,0,15.785,70.427L29.161,85.01A216.978,216.978,0,0,1,176.206,27.787c120.017,0,217.655,97.638,217.655,217.655a216.977,216.977,0,0,1-57.223,147.046l14.593,13.376A236.786,236.786,0,0,0,413.648,245.442Z" transform="translate(126.749 31.574)" fill="#576716"/>
          <path id="Path_35" data-name="Path 35" d="M27.787,176.215A217.039,217.039,0,0,1,85.01,29.16L70.417,15.784A236.829,236.829,0,0,0,8,176.215C8,307.135,114.522,413.657,245.442,413.657A236.749,236.749,0,0,0,405.863,351.23l-13.376-14.593A216.94,216.94,0,0,1,245.442,393.87C125.425,393.87,27.787,296.232,27.787,176.215Z" transform="translate(57.514 100.8)" fill="#576716"/>
          <path id="Path_36" data-name="Path 36" d="M68.574,101.968V21H48.787v80.968A29.608,29.608,0,1,0,86.54,139.721h41.394V119.934H86.54A29.651,29.651,0,0,0,68.574,101.968ZM58.68,139.721a9.893,9.893,0,1,1,9.893-9.893A9.9,9.9,0,0,1,58.68,139.721Z" transform="translate(244.275 147.188)" fill="#576716"/>
          <rect id="Rectangle_51" data-name="Rectangle 51" width="19.777" height="19.787" transform="matrix(0.981, -0.195, 0.195, 0.981, 239.201, 7.259)" fill="#576716"/>
          <rect id="Rectangle_52" data-name="Rectangle 52" width="19.787" height="19.787" transform="translate(187.812 24.863) rotate(-22.482)" fill="#576716"/>
          <rect id="Rectangle_53" data-name="Rectangle 53" width="19.787" height="19.787" transform="translate(140.829 52.174) rotate(-33.73)" fill="#576716"/>
          <rect id="Rectangle_54" data-name="Rectangle 54" width="19.787" height="19.787" transform="translate(100.077 88.132) rotate(-45)" fill="#576716"/>
          <rect id="Rectangle_55" data-name="Rectangle 55" width="19.787" height="19.787" transform="matrix(0.556, -0.831, 0.831, 0.556, 67.115, 131.342)" fill="#576716"/>
          <rect id="Rectangle_56" data-name="Rectangle 56" width="19.787" height="19.787" transform="translate(43.235 180.138) rotate(-67.492)" fill="#576716"/>
          <rect id="Rectangle_57" data-name="Rectangle 57" width="19.787" height="19.787" transform="translate(29.338 232.669) rotate(-78.755)" fill="#576716"/>
          <rect id="Rectangle_58" data-name="Rectangle 58" width="19.777" height="19.787" transform="matrix(0.981, -0.195, 0.195, 0.981, 343.438, 531.192)" fill="#576716"/>
          <rect id="Rectangle_59" data-name="Rectangle 59" width="19.787" height="19.787" transform="translate(392.265 518.444) rotate(-22.482)" fill="#576716"/>
          <rect id="Rectangle_60" data-name="Rectangle 60" width="19.797" height="19.787" transform="translate(437.668 496.386) rotate(-33.73)" fill="#576716"/>
          <rect id="Rectangle_61" data-name="Rectangle 61" width="19.787" height="19.787" transform="translate(477.843 465.898) rotate(-45)" fill="#576716"/>
          <rect id="Rectangle_62" data-name="Rectangle 62" width="19.797" height="19.787" transform="translate(511.37 428.168) rotate(-56.27)" fill="#576716"/>
          <rect id="Rectangle_63" data-name="Rectangle 63" width="19.787" height="19.787" transform="translate(536.821 384.604) rotate(-67.518)" fill="#576716"/>
          <rect id="Rectangle_64" data-name="Rectangle 64" width="19.777" height="19.787" transform="matrix(0.195, -0.981, 0.981, 0.195, 553.301, 336.938)" fill="#576716"/>
        </g>
      </g>
      <text id="TRANSPORT" transform="translate(23.703 28.109) rotate(90)" font-size="59" font-family="Roboto-Bold, Roboto" font-weight="700"><tspan x="0" y="0">TRANSPORT</tspan></text>
    </g>
  </g>
</svg>
