<svg id="Layer_1" data-name="Layer 1" xmlns="http://www.w3.org/2000/svg" viewBox="0 0 588.06 892.73"><defs><style>.cls-1{fill-rule:evenodd;}</style></defs><title>Tree</title><path class="cls-1" d="M577.28,854.36c6.51-1.67,13.29-3.72,20.48-6.33-31.41-14.71-35.77-16-62.82-36.5a146.93,146.93,0,0,0,38.49-11.8,411.74,411.74,0,0,1-80.25-49.56q15.42-4,30.81-8.52A204.43,204.43,0,0,0,563.62,734c1.09-.54,4.36-1.08,3.45-1.81a581.91,581.91,0,0,1-63.47-47.42,114.51,114.51,0,0,0,16.08-6.15,329.62,329.62,0,0,1-59.47-36Q447.09,628.09,435.64,613c2.2-.36,4.4-.81,6.59-1.33a156.1,156.1,0,0,0,60.57-6.18c.73-.55,3.27-.91,2.54-1.46-7-4.74-13.79-9.64-20.38-14.64a129.37,129.37,0,0,0,34.73-10.05,326.62,326.62,0,0,1-124-101.54c24.42,6.17,56.51,0,73.35-8.85a249.38,249.38,0,0,1-50.88-37.1,76.69,76.69,0,0,0,20.56-7.75c-30.68-17.33-56.5-42.18-77.14-74.75,7.92,4.65,18.28,6.38,28.76,6.18a70.4,70.4,0,0,0,33.39-7c1.46-.64,2.84-1.31,4.1-2a.26.26,0,0,1-.09,0l.26-.14c-33.4-18.88-60.45-47.38-81-86.06a47.69,47.69,0,0,0,38.48-3.62,128.85,128.85,0,0,1-26-19.61l.11,0,.44.17c11.26,2,23.05.72,35.4-6-2.08-1.17-4.12-2.4-6.14-3.68-.43-.27-.84-.55-1.25-.84q-2.39-1.53-4.71-3.16l-1.39-1c-1.48-1.08-2.95-2.16-4.39-3.3l-1.31-1.07c-1.46-1.18-2.9-2.38-4.33-3.63l-1.09-1c-1.5-1.34-3-2.7-4.42-4.11l-.77-.76c-1.57-1.55-3.12-3.14-4.63-4.77l-.35-.38q-17.79-19.36-30.41-46.73a19.19,19.19,0,0,0,4.19,1.09c-.18-.37-.18-.55-.36-.73-2.91-6.72-5.45-13.8-8-21,10.89,6.71,17.78,6,31.41-1.46-1.81-1-3.58-2.12-5.3-3.28-.26-.17-.52-.33-.77-.51-1.67-1.14-3.31-2.35-4.9-3.62l-.67-.54c-1.61-1.31-3.19-2.68-4.72-4.11,0,0,0,0-.05,0-1.46-1.39-2.87-2.87-4.26-4.37l-1-1.09c-1.26-1.42-2.49-2.9-3.69-4.42-.41-.53-.79-1.06-1.19-1.59-.88-1.16-1.73-2.37-2.56-3.59-.63-.91-1.24-1.84-1.84-2.79-.7-1.1-1.39-2.23-2.07-3.38-.57-1-1.12-1.92-1.66-2.91s-.91-1.73-1.36-2.59c-.93-1.8-1.84-3.64-2.71-5.54-.23-.5-.46-1-.68-1.52-1.18-2.68-2.31-5.43-3.37-8.3-6.21-16.77-10.32-36.76-12.2-60.19-1.23,22.07-5.82,43.54-15.25,63.57-9.63,18.81-28.53,38.45-46.67,53.9a41.62,41.62,0,0,0,25.24.73,3.8,3.8,0,0,0,.55-.91c.18.18.18.54.36.72A84.94,84.94,0,0,0,275.5,135c-2.18,5.08-4.36,10.17-6.72,15.25a63.62,63.62,0,0,0,6.87-2.52c-14.13,29.39-34.7,57.06-63.52,81.86a.53.53,0,0,0-.08.15c-.64.55-1.25,1.11-1.91,1.67.7.25,1.41.46,2.11.68l.07,0,.76.23c.67.21,1.35.41,2,.6.85.24,1.71.44,2.55.64.36.09.71.18,1.07.25a68.81,68.81,0,0,0,21.56,1.19l.43-.12c.76-.08,1.53-.15,2.3-.25a267.39,267.39,0,0,1-23.07,22.15,61.54,61.54,0,0,0,32.55,2.39c-17.93,30.06-41.4,58.42-71.47,84.55-1.07.92-2.11,1.84-3.2,2.76.37.14.73.24,1.1.37a7.12,7.12,0,0,1,1.62.9,92.72,92.72,0,0,0,37.57,3.81,77,77,0,0,0,10.16-1.5c2.82-.55,5.61-1.18,8.37-1.95a392.1,392.1,0,0,1-69.35,76.25A76.72,76.72,0,0,0,190,429a444.48,444.48,0,0,1-49.2,40.13l.45.12a.22.22,0,0,0-.09.07c-.72.36,1.46.72,2.18,1.08a125.84,125.84,0,0,0,49.57,5.08c2.45-.51,4.83-1,7.14-1.62h.11c-23.24,40.13-54.1,80.79-105.67,105.66a162.18,162.18,0,0,0,38.26,7.26,308.74,308.74,0,0,1-27.91,17.44c13.27,7,34.17,12.53,55.33,13.61A594.68,594.68,0,0,1,86.49,679c6.25,2,21.27,3.34,29.17,4.54a398.5,398.5,0,0,1-72.38,48.84c16.11,8.17,35.27,14.82,54.22,16.8a753.29,753.29,0,0,1-64.57,51.1,220.11,220.11,0,0,0,25.78,6C50,814,40.74,821.66,31.3,829.29a83.4,83.4,0,0,0,21.38,4.42,442.68,442.68,0,0,1-43,25.36c34.68,8.36,65.9,14,110.2-15.61,3.45,18.52,6,30.5.54,43.39,24.77-3.39,37.33-14,51.07-32.68l12.07-6c3.29,17.12,2.6,42.48-.32,56.5,14.6,4.22,46.84-13.83,71.06-33.21,14.58-1.77,30.37-7.79,44.23-14.44,23.62,25.22,69.12,52.74,100.39,56-5.42-8.12-8.68-20.47-10.71-33.26,4.42,1.74,7.89,2.34,9.8,1.12a112.91,112.91,0,0,1,1.39-29.65c19,15,46.65,35,66.87,38.37-6.79-10.93-7.22-36.11-3.68-48.1,8.66,3.09,17.24,6.34,26.1,9.22,30.59,17.21,68.11,17,91.77,10,1.28-.54,4.91-1.08,3.82-1.82C582,857.42,579.61,855.88,577.28,854.36Z" transform="translate(-9.7 -20.27)"/></svg>