<?xml version="1.0" encoding="utf-8"?>
<!-- Generator: Adobe Illustrator 23.0.2, SVG Export Plug-In . SVG Version: 6.00 Build 0)  -->
<svg version="1.1" id="Layer_1" xmlns="http://www.w3.org/2000/svg" xmlns:xlink="http://www.w3.org/1999/xlink" x="0px" y="0px"
	 viewBox="0 0 1266.8 369.8" style="enable-background:new 0 0 1266.8 369.8;" xml:space="preserve">
<style type="text/css">
	.st0{fill:#1F6300;}
	.st1{fill-rule:evenodd;clip-rule:evenodd;fill:#297C1A;}
	.st2{fill-rule:evenodd;clip-rule:evenodd;fill:#6EC65C;}
	.st3{fill-rule:evenodd;clip-rule:evenodd;fill:#1F6300;}
	.st4{fill:#3EAD47;}
	.st5{fill:#297C1A;}
	.st6{fill-rule:evenodd;clip-rule:evenodd;fill:#41A02D;}
	.st7{fill:#D9D9D9;}
</style>
<g id="Group_93" transform="translate(-355.176 -706.246)">
	<g id="Group_69" transform="translate(0 -35)">
		<g id="noun_Tree_1663571" transform="translate(405.993 734.461)">
			<path id="Path_43" class="st0" d="M20.1,126.4c-2.7-6.5-4.1-13.5-4.1-20.5c0-27.2,20.2-49.3,45.3-49.5
				c4.9-21.7,22.8-37.8,44.3-37.8c8.5,0,16.9,2.6,23.9,7.4c8.3-11.6,21.3-19.2,36-19.2c22.8,0,41.6,18.2,45,41.9
				c1.9-0.3,3.8-0.4,5.7-0.4c25.2,0,45.6,22.2,45.6,49.6c0,0.6-0.1,1.1-0.1,1.7c13.7,8.6,22.9,24.6,22.9,42.9
				c0.1,14.4-5.8,28.1-16.3,37.9c0.2,1.8,0.3,3.6,0.3,5.5c0,27.4-20.4,49.6-45.6,49.6c-8.7-0.1-17.1-2.8-24.2-7.8
				c-10.2,11.1-22.6,7.2-26.2,21.7c-14.7,58.4,8.6,92.6,8.6,92.6h-55c0,0,26.2-67.8,4.8-83.3c-5.4-3.9-11-9.9-16.1-16.4
				c-7.5,5.9-16.8,9.2-26.4,9.2c-25,0-45.3-21.9-45.6-49c-18.2-6.5-31.4-25.1-31.4-47.1C11.4,145.2,14.4,135.1,20.1,126.4z
				 M175.7,228c5.5-1.7,11-3.7,16.3-6.1c-6.4-6.5-10.9-14.6-13-23.4c-4.9,4.7-10.5,8.7-16.6,11.6C159.9,222,161.2,232.6,175.7,228
				L175.7,228z M152.6,230.1c-0.2-5.5,0-11,0.6-16.5c-4.8,1.4-9.7,2.2-14.7,2.4C145.3,236,153.6,255.7,152.6,230.1L152.6,230.1z
				 M141.7,247.2c-5.8-7-9.9-15.3-12.1-24.1c-1.8,4-4.1,7.8-6.8,11.2C133,241.6,141.7,247.2,141.7,247.2L141.7,247.2z"/>
		</g>
		<g id="noun_Tree_1976422" transform="translate(385 786.419)">
			<g id="Group_66">
				<path id="Path_42" class="st1" d="M189,289l-52,1c9-20,12-55,11-68c-18-11-37-27-51-47c-9,2-18,1-26-4c-26,13-63-1-63-26
					c0-19,22-33,45-31c10-28,41-37,61-17c18-10,39-2,46,17c8,0,16,4,20,11c-23,5-41,25-32,46c-2.6,1.2-5.3,2.2-8,3v29
					c3.4,2.7,7.1,5,11,7l1-32c4.6,4.9,10,8.9,16,12l1,8l3-6c2,0,3,1,4,1s3,0,4,1l-7,15l1,5l30-15l-1-5c2-1,3-1,5-2l1,3l7-3
					c3,1,6,2,9,2l-48,30C176,249,180,270,189,289z M190,61c-7-24-48-24-58,5c-9-4-27,4-30,17c5,2,9,5,13,8
					c18.3-8.1,39.7,0.2,47.8,18.5c0.1,0.2,0.1,0.3,0.2,0.5c10,0,17,6,22,14h8c11-28,42-37,64-19c4-1,0-28-22-27
					C229,59,207,51,190,61z M302,129c-6-19-28-28-45-18c-21-20-52-11-61,18c-27-2-55,17-42,43c9,17,38,24,60,13
					c11.4,7.2,26,6.8,37-1c18,10,49,4,52-12c12.1-0.1,21.9-9.9,22-22C325,138,314,128,302,129z M104,173c9,9,19,21,30,26l2-25
					c-9,1-19,0-27-4C107.2,170.8,105.5,171.8,104,173z"/>
			</g>
		</g>
		<g id="noun_Tree_1976422-2" transform="translate(926.48 865.257)">
			<g id="Group_66-2" transform="translate(8 43.581)">
				<path id="Path_42-2" class="st2" d="M123.1,166.9l-35.4,0.7c6.1-13.6,8.2-37.4,7.5-46.2C83,113.9,70,103,60.5,89.4
					c-6,1.5-12.4,0.5-17.7-2.7C25.2,95.5,0,86,0,69C0,56,15,46.5,30.6,47.9c6.8-19,27.9-25.2,41.5-11.6c12.2-6.8,26.5-1.4,31.3,11.6
					c5.5-0.1,10.7,2.8,13.6,7.5c-15.6,3.4-27.9,17-21.8,31.3c-1.8,0.8-3.6,1.5-5.4,2v19.7c2.3,1.8,4.8,3.4,7.5,4.8l0.7-21.8
					c3.2,3.3,6.8,6.1,10.9,8.2l0.7,5.4l2-4.1c1.4,0,2,0.7,2.7,0.7c1-0.1,1.9,0.1,2.7,0.7l-4.8,10.2l0.7,3.4l20.4-10.2l-0.7-3.4
					c1.4-0.7,2-0.7,3.4-1.4l0.7,2l4.8-2c2,0.8,4,1.2,6.1,1.4l-32.6,20.4C114.3,139.7,117,154,123.1,166.9z M123.8,11.8
					C119-4.5,91.1-4.5,84.3,15.2C78.2,12.5,66,18,63.9,26.8c3.2,1.4,6.2,3.2,8.8,5.4c12.5-5.5,27,0.2,32.5,12.6
					c0,0.1,0.1,0.2,0.1,0.3c6.8,0,11.6,4.1,15,9.5h5.4c7.5-19,28.6-25.2,43.5-12.9c2.7-0.7,0-19-15-18.4c-3.5-11-15.2-17-26.2-13.5
					C126.6,10.4,125.2,11,123.8,11.8L123.8,11.8z M199.9,58.1c-4.1-12.9-19-19-30.6-12.2c-14.3-13.6-35.4-7.5-41.5,12.2
					c-18.4-1.4-37.4,11.6-28.6,29.2c6.1,11.6,25.8,16.3,40.8,8.8c7.8,4.9,17.7,4.6,25.2-0.7c12.2,6.8,33.3,2.7,35.4-8.2
					c8.2-0.1,14.9-6.7,15-15c-0.2-8.1-6.9-14.5-15.1-14.3C200.3,58.1,200.1,58.1,199.9,58.1z M65.3,88c6.1,6.1,12.9,14.3,20.4,17.7
					l1.4-17c-6.1,0.7-12.9,0-18.4-2.7C67.5,86.5,66.3,87.2,65.3,88z"/>
			</g>
		</g>
		<g id="noun_Tree_1976422-3" transform="translate(601.48 786.419)">
			<g id="Group_66-3" transform="translate(8 43.581)">
				<path id="Path_42-3" class="st3" d="M181,245.4l-52,1c9-20,12-55,11-68c-18-11-37-27-51-47c-9,2-18,1-26-4c-26,13-63-1-63-26
					c0-19,22-33,45-31c10-28,41-37,61-17c18-10,39-2,46,17c8,0,16,4,20,11c-23,5-41,25-32,46c-2.6,1.2-5.3,2.2-8,3v29
					c3.4,2.7,7.1,5,11,7l1-32c4.6,4.9,10,8.9,16,12l1,8l3-6c2,0,3,1,4,1s3,0,4,1l-7,15l1,5l30-15l-1-5c2-1,3-1,5-2l1,3l7-3
					c3,1,6,2,9,2l-48,30C168,205.4,172,226.4,181,245.4z M182,17.4c-7-24-48-24-58,5c-9-4-27,4-30,17c5,2,9,5,13,8
					c18.3-8.1,39.7,0.2,47.8,18.5c0.1,0.2,0.1,0.3,0.2,0.5c10,0,17,6,22,14h8c11-28,42-37,64-19c4-1,0-28-22-27
					C221,15.4,199,7.4,182,17.4z M294,85.4c-6-19-28-28-45-18c-21-20-52-11-61,18c-27-2-55,17-42,43c9,17,38,24,60,13
					c11.4,7.2,26,6.8,37-1c18,10,49,4,52-12c12.1-0.1,21.9-9.9,22-22C317,94.4,306,84.4,294,85.4z M96,129.4c9,9,19,21,30,26l2-25
					c-9,1-19,0-27-4C99.2,127.2,97.5,128.2,96,129.4z"/>
			</g>
		</g>
		<g id="noun_Tree_1663571-2" transform="translate(525.619 906.765)">
			<path id="Path_43-2" class="st4" d="M151.1,64.9c5.5-12.1,0.2-26.3-11.8-31.9c-3.1-1.4-6.5-2.2-9.9-2.2
				c-3.1-12.9-16.1-20.8-29-17.7c-2.5,0.6-4.8,1.6-7,2.9C85.2,5.6,70.1,3.7,59.6,11.8c-4.9,3.8-8.1,9.3-9,15.3c-1-0.1-2-0.2-3-0.2
				C34.3,27,23.5,37.7,23.5,51c0,0.3,0,0.5,0,0.8C12,58.5,8,73.2,14.6,84.7c1.4,2.4,3.2,4.6,5.4,6.4c-0.1,0.9-0.2,1.8-0.2,2.7
				c0,13.3,10.8,24.1,24.1,24.1c4.5,0,9-1.3,12.8-3.8c5.4,5.4,11.9,3.5,13.8,10.6c7.8,28.4-4.5,45-4.5,45h29.1c0,0-13.9-33-2.6-40.5
				c3.2-2.3,6-4.9,8.5-8c10.8,7.7,25.8,5.2,33.5-5.5c2.9-4,4.4-8.8,4.5-13.8c12.6-4.1,19.5-17.7,15.4-30.3
				C153.7,69.2,152.5,67,151.1,64.9L151.1,64.9z M69,114.3c-2.9-0.8-5.8-1.8-8.6-3c3.3-3.1,5.7-7,6.9-11.4c2.6,2.3,5.6,4.2,8.8,5.7
				C77.3,111.3,76.6,116.5,69,114.3L69,114.3z M81.2,115.3c0.1-2.7,0-5.3-0.3-8c2.5,0.7,5.1,1.1,7.7,1.2
				C85,118.2,80.6,127.8,81.2,115.3L81.2,115.3z M86.9,123.6c3-3.4,5.2-7.4,6.4-11.7c0.9,2,2.2,3.8,3.6,5.4
				C91.5,120.9,86.9,123.6,86.9,123.6L86.9,123.6z"/>
		</g>
		<g id="noun_Tree_1663571-3" transform="translate(1039.993 849.929)">
			<path id="Path_43-3" class="st5" d="M17.1,85.2c-1.8-4.3-2.7-8.8-2.7-13.5c0-17.9,13.3-32.3,29.7-32.5c3.2-14.2,15-24.8,29-24.8
				c5.6,0,11,1.7,15.7,4.9c5.4-7.8,14.1-12.5,23.6-12.6c14.9,0,27.3,11.9,29.5,27.5c1.2-0.2,2.5-0.3,3.8-0.3
				c16.5,0,29.9,14.5,29.9,32.5c0,0.4,0,0.7-0.1,1.1c9,5.6,15,16.1,15,28.1c0.1,9.4-3.8,18.4-10.7,24.9c0.1,1.2,0.2,2.4,0.2,3.6
				c0,17.9-13.4,32.5-29.9,32.5c-5.7,0-11.2-1.8-15.9-5.1c-6.7,7.2-14.8,4.7-17.2,14.2c-9.7,38.3,5.6,60.7,5.6,60.7H86.6
				c0,0,17.2-44.5,3.2-54.6c-4-3.1-7.5-6.7-10.6-10.7c-4.9,3.9-11,6-17.3,6.1c-16.4,0-29.7-14.3-29.9-32.1
				c-12-4.3-20.6-16.5-20.6-30.9C11.4,97.5,13.4,90.9,17.1,85.2z M119.1,151.8c3.6-1.1,7.2-2.5,10.7-4c-4.2-4.3-7.1-9.6-8.5-15.4
				c-3.2,3.1-6.9,5.7-10.9,7.6C108.8,147.8,109.6,154.8,119.1,151.8z M104,153.2c-0.2-3.6,0-7.2,0.4-10.8c-3.1,0.9-6.4,1.5-9.6,1.6
				C99.2,157,104.6,170,104,153.2L104,153.2z M96.9,164.4c-3.8-4.6-6.5-10-7.9-15.8c-1.2,2.6-2.7,5.1-4.5,7.3
				C91.1,160.7,96.9,164.4,96.9,164.4L96.9,164.4z"/>
		</g>
		<g id="noun_Tree_1663571-4" transform="translate(1106.993 799.651)">
			<path id="Path_43-4" class="st4" d="M18.4,103.2c-2.2-5.2-3.3-10.9-3.3-16.5c0-21.9,16.3-39.7,36.5-39.9
				c3.9-17.5,18.4-30.5,35.7-30.5c6.9,0,13.6,2.1,19.2,6c6.7-9.4,17.2-15.4,29-15.4c18.4,0,33.5,14.7,36.3,33.8
				c1.5-0.2,3.1-0.3,4.6-0.3c20.3,0,36.8,17.9,36.8,39.9c0,0.5,0,0.9-0.1,1.3c11,6.9,18.4,19.8,18.4,34.6
				c0.1,11.6-4.6,22.6-13.1,30.5c0.2,1.5,0.2,2.9,0.2,4.4c0,22-16.5,39.9-36.7,39.9c-7,0-13.8-2.2-19.5-6.3
				c-8.2,8.9-18.2,5.8-21.1,17.5c-11.9,47,6.9,74.6,6.9,74.6h-44.3c0,0,21.1-54.6,3.9-67.1c-4.3-3.1-8.8-7.9-13-13.2
				c-6.1,4.8-13.5,7.4-21.2,7.4c-20.1,0-36.5-17.6-36.7-39.4c-14.7-5.2-25.3-20.2-25.3-37.9C11.4,118.2,13.9,110.1,18.4,103.2z
				 M143.7,184.9c4.5-1.4,8.8-3,13.1-4.9c-5.1-5.2-8.8-11.8-10.5-18.9c-3.9,3.8-8.4,7-13.4,9.4C131,180.1,132,188.6,143.7,184.9z
				 M125.1,186.7c-0.2-4.4,0-8.9,0.5-13.3c-3.8,1.1-7.8,1.8-11.8,1.9C119.3,191.4,125.9,207.3,125.1,186.7z M116.4,200.4
				c-4.6-5.7-8-12.3-9.7-19.4c-1.4,3.2-3.3,6.3-5.5,9C109.3,195.9,116.4,200.4,116.4,200.4z"/>
		</g>
		<g id="noun_Tree_1663571-5" transform="translate(1176.993 756.622)">
			<path id="Path_43-5" class="st5" d="M19.6,118.5c-2.6-6.1-3.9-12.6-3.9-19.2c0-25.4,18.9-46.1,42.3-46.3
				c4.5-20.3,21.3-35.3,41.3-35.3c8,0,15.7,2.4,22.3,6.9c7.8-10.9,19.9-17.9,33.6-17.9c21.3,0,38.9,17,42,39.2
				c1.8-0.3,3.6-0.4,5.3-0.4c23.5,0,42.6,20.7,42.6,46.3c0,0.5-0.1,1-0.1,1.6c12.8,8,21.4,22.9,21.4,40.1
				c0.1,13.4-5.4,26.2-15.2,35.4c0.2,1.7,0.3,3.4,0.3,5.1c0,25.6-19.1,46.3-42.6,46.3c-8.1-0.1-16-2.6-22.6-7.3
				c-9.5,10.3-21.1,6.8-24.5,20.3c-13.8,54.5,8,86.5,8,86.5h-51.4c0,0,24.5-63.4,4.5-77.8c-5-3.6-10.2-9.2-15-15.3
				c-7,5.6-15.7,8.6-24.6,8.6c-23.3,0-42.3-20.4-42.6-45.7c-17-6.1-29.3-23.4-29.3-44C11.4,136,14.2,126.6,19.6,118.5z M164.8,213.3
				c5.2-1.6,10.2-3.5,15.2-5.7c-6-6.1-10.2-13.6-12.2-21.9c-4.6,4.4-9.8,8.1-15.5,10.9C150.1,207.7,151.3,217.6,164.8,213.3
				L164.8,213.3z M143.2,215.4c-0.2-5.1,0-10.3,0.6-15.4c-4.4,1.3-9,2.1-13.7,2.2C136.5,220.9,144.2,239.3,143.2,215.4L143.2,215.4z
				 M133.1,231.3c-5.4-6.6-9.2-14.3-11.3-22.5c-1.7,3.7-3.8,7.2-6.4,10.4C124.9,226.1,133.1,231.3,133.1,231.3L133.1,231.3z"/>
		</g>
		<g id="noun_Tree_2564274" transform="translate(615 884.714)">
			<g id="Group_67" transform="translate(4)">
				<path id="Path_44" class="st2" d="M69.9,89.5c1.3,1,2.2,2.2,3.5,3.2c1.9,1.9,5.4,5.7,8.3,4.2c4.5-2.2,9.6-13.1,13.1-17.6
					c3.5-4.5,7.3-5.7,12.1-7.7c0.3,0,0.6-0.3,1.3-0.3V71c0-0.8,0.4-1.6,1-2.2c-0.6-1.5-0.9-3.1-1-4.8v-0.3c-1,0-1.9,0.3-2.6,0.3
					c-2.8,1.4-5.8,2.2-8.9,2.2c-4.6,0-9.1-1.7-12.4-4.8c-3.8,2.6-8.9,3.8-14.4,3.8h-2.2v1c0.8,0.4,1.3,1.3,1.3,2.2
					c0,0.7-0.4,1.4-1,1.9c0.6,1.2,0.9,2.5,1,3.8v0.3c1.1-0.3,2.3-0.4,3.5-0.3c6.4,0,11.5,2.9,11.5,6.4s-5.1,6.4-11.5,6.4h-1.3
					c0,1.1-0.2,2.2-0.6,3.2L69.9,89.5z M91.3,115.7c-0.3-0.6-0.4-1.3-0.3-1.9h-1.9c-1.3,2.7-1.4,5.8-0.3,8.6c1.3,3.8-1,8.6,0,13.7
					c0.6,2.6,1.3,6.7,0.3,9.3c-1.2,2.7-1.4,5.8-0.6,8.6c0.6,4.2,1.3,4.2,0,8.6c-0.5,2.4-0.4,5,0.3,7.3c1,4.5,1.6,5.4,5.4,8.3
					c2.4,1.8,4,4.5,4.4,7.5c6.5,7.4-1.1,6.1-6.3,6.2c-0.6-0.3-25.2-1.3-27.5,0c-1.6,1-1.9-9.9,1-15c2.6-4.8,2.2-3.8,2.2-9.6v-8
					c-0.3-4.2-3.8-5.1-1.6-10.9s1.6-5.1,1-11.2c-0.3-4.2,0.6-5.1-0.6-9.3c-1-3.2-1.6-5.4,1-8.3c1.9-1.9,1.9-2.2,1.3-5.1
					c-0.6-2.1-1-4.2-1-6.4v-2.2c-0.2-3.4-1-6.7-2.2-9.9c-1.4,1-3.1,1.5-4.8,1.6h-1c-0.6,7.3-8,13.4-16.9,13.4
					c-8.3,0-15-4.8-16.6-11.2c-2.5,0.8-5.1,1.2-7.7,1.3c-7.3,0-13.4-2.9-13.4-6.4c0.1-0.7,0.3-1.3,0.6-1.9
					c-5.4-1.6-9.3-4.2-10.9-7.3h-4.2c-11.8,0-21.1-2.9-21.1-6.4s9.6-6.4,21.1-6.4c2.1-0.1,4.3,0,6.4,0.3c-1.4-0.9-2.2-2.5-2.2-4.2
					c0-4.2,6.1-7.3,13.4-7.3c3.5-0.1,6.9,0.8,9.9,2.6c3.2-1.3,6.7-2,10.2-1.9c-5.1-2.2-8-5.1-8-8.3c0-1.2,0.3-2.4,1-3.5
					c-0.7-2.5-1-5.1-1-7.7v-0.6c-1.5,0.4-3,0.6-4.5,0.6c-8,0-14.4-5.4-14.4-11.8c0-6.7,6.4-11.8,14.4-11.8h1.6
					C18.2,7.1,24-2.5,30.7-2.5h1.3C32.6-16.8,41.8-28,53.3-28c10.2,0,18.8,9.3,21.1,21.4c3-1.4,6.3-2.2,9.6-2.2
					c9.3,0,16.9,5.4,16.9,12.5c0,1.2-0.2,2.4-0.6,3.5c6.7,2.9,11.8,7.7,13.7,13.7c1.6,0,3.5-0.3,5.1-0.3c3,0,6,0.3,8.9,0.6
					c4-2.6,8.7-3.9,13.4-3.8c10.2,0,18.8,6.1,21.1,14c3.1-0.9,6.3-1.4,9.6-1.3c9.3,0,16.9,3.5,16.9,8c0,0.8-0.2,1.6-0.6,2.2
					c6.7,1.9,11.8,5.1,13.7,8.9h5.1c14.7,0,26.8,3.5,26.8,8s-11.8,8-26.8,8c-2.7,0.1-5.3,0-8-0.3c1.9,1.6,2.9,3.2,2.9,5.1
					c0,5.1-7.7,9.3-16.9,9.3c-4.4,0.1-8.7-1-12.5-3.2c-4.6,1.8-9.5,2.6-14.4,2.6h-2.2c0,6.7-4.2,12.1-8.9,12.1s-8.9-5.4-8.9-12.1
					h-4.8c-10.5,0-19.2-1.9-23-4.5c-0.6,0.3-1.3,0.3-1.6,0.6c-8.3,4.2-9.6,5.4-12.8,14.4c-1.8,4.8-3.2,9.7-4.2,14.7
					c0.9-1.2,2.3-2,3.8-1.9h0.6c0.3-3.8,3.8-6.7,8.6-6.7c4.2,0,7.7,2.2,8.3,5.4c1.2-0.4,2.5-0.6,3.8-0.6c3.8,0,6.7,1.6,6.7,3.2
					c0,0.4-0.1,0.7-0.3,1c2.6,0.6,4.8,1.9,5.4,3.5h2.2c5.7,0,10.5,1.3,10.5,3.2c0,1.6-4.8,3.2-10.5,3.2H128c0.6,0.6,1.3,1.3,1.3,1.9
					c0,1.9-2.9,3.8-6.7,3.8c-1.8,0.1-3.6-0.3-5.1-1.3c-1.8,0.7-3.8,1-5.7,1h-1c0,2.6-1.6,4.8-3.5,4.8s-3.5-2.2-3.5-4.8h-1.9
					c-5.4,0-9.9-1.3-9.9-2.9c0-0.4,0.1-0.7,0.3-1L91.3,115.7z"/>
			</g>
		</g>
		<g id="noun_Tree_2564274-2" transform="translate(1223.238 799.21)">
			<g id="Group_67-2" transform="translate(-26 -28)">
				<path id="Path_44-2" class="st2" d="M264,163.2c-2.1,1.3-3.6,3.1-5.6,4.4c-3.1,2.7-8.7,8-13.4,5.8c-7.2-3.1-15.4-18.2-21.1-24.4
					s-11.8-8-19.5-10.6c-0.5,0-1-0.4-2.1-0.4v-0.4c-0.1-1.2-0.6-2.3-1.5-3.1c1-2.1,1.5-4.3,1.5-6.7v-0.4c1.5,0,3.1,0.4,4.1,0.4
					c4.5,2,9.4,3,14.4,3.1c7.2,0.1,14.3-2.2,20-6.7c6.2,3.5,14.4,5.3,23.1,5.3h3.6v1.3c-1.5,0.9-2.1,1.8-2.1,3.1
					c0.1,1.1,0.7,2,1.5,2.7c-1,1.6-1.5,3.4-1.5,5.3v0.4c-1.9-0.4-3.8-0.5-5.6-0.4c-10.3,0-18.5,4-18.5,8.9s8.2,8.9,18.5,8.9h2.1
					c0,1.5,0.4,3,1,4.4L264,163.2z M229.6,199.5c0.4-0.8,0.6-1.7,0.5-2.7h3.1c1.5,3.5,2.6,6.6,0.5,12s1.5,12,0,19.1
					c-1,3.5-2.1,9.3-0.5,12.9c2.1,4.9,2.1,7.1,1,12c-1,5.8-2.1,5.8,0,12c1,3.5,0.5,6.7-0.5,10.2c-1.5,6.2-2.6,7.5-8.7,11.5
					c-3.8,2.3-6.3,6.1-7,10.4c-10.5,10.2,1.8,8.4,10.1,8.6c1-0.4,40.6-1.8,44.2,0c2.6,1.3,3.1-13.7-1.5-20.8
					c-4.1-6.6-3.6-5.3-3.6-13.3v-11.1c0.5-5.8,6.2-7.1,2.6-15.1s-2.6-7.1-1.5-15.5c0.5-5.8-1-7.1,1-12.9c1.5-4.4,2.6-7.5-1.5-11.5
					c-3.1-2.7-3.1-3.1-2.1-7.1c1-2.8,1.5-5.8,1.5-8.9v-3.1c0.4-4.8,1.6-9.4,3.6-13.7c2.4,1.3,5,2.1,7.7,2.2h1.5
					c1,10.2,12.8,18.6,27.2,18.6c13.4,0,24.1-6.7,26.7-15.5c4,1.1,8.2,1.7,12.3,1.8c11.8,0,21.6-4,21.6-8.9c-0.1-1-0.5-1.9-1-2.7
					c8.7-2.2,14.9-5.8,17.5-10.2h6.7c19,0,33.9-4,33.9-8.9s-15.4-8.9-33.9-8.9c-3.4-0.1-6.9,0.1-10.3,0.4c2.6-1.8,3.6-3.5,3.6-5.8
					c0-5.8-9.8-10.2-21.6-10.2c-5.5-0.1-11,1.1-15.9,3.5c-5.3-1.9-10.8-2.8-16.4-2.7c8.2-3.1,12.8-7.1,12.8-11.5
					c0-1.7-0.6-3.4-1.5-4.9c1.1-3.4,1.6-7,1.5-10.6v-0.9c2.4,0.5,4.8,0.8,7.2,0.9c12.8,0,23.1-7.5,23.1-16.4
					c0-9.3-10.3-16.4-23.1-16.4h-2.6c-0.5-16.8-9.8-30.1-20.5-30.1h-2.1c-1-20-15.9-35.5-34.4-35.5c-16.4,0-30.3,12.9-33.9,29.7
					c-4.9-2-10.1-3-15.4-3.1c-14.9,0-27.2,7.5-27.2,17.3c0,1.7,0.4,3.3,1,4.9c-10.8,4-19,10.6-22.1,19.1c-2.6,0-5.6-0.4-8.2-0.4
					c-5.1,0-9.8,0.4-14.4,0.9c-6.6-3.7-14-5.5-21.6-5.3c-16.4,0-30.3,8.4-33.9,19.5c-5-1.3-10.2-1.9-15.4-1.8
					c-14.9,0-27.2,4.9-27.2,11.1c0,1.1,0.4,2.2,1,3.1c-10.8,2.7-19,7.1-22.1,12.4h-8.2c-23.6,0-43.1,4.9-43.1,11.1
					s19,11.1,43.1,11.1c4.3,0.1,8.6-0.1,12.8-0.4c-3.1,2.2-4.6,4.4-4.6,7.1c0,7.1,12.3,12.9,27.2,12.9c6.9,0.1,13.8-1.4,20-4.4
					c7.5,2.5,15.3,3.7,23.1,3.5h3.6c0,9.3,6.7,16.8,14.4,16.8s14.4-7.5,14.4-16.8h7.7c16.9,0,30.8-2.7,37-6.2c1,0.4,2.1,0.4,2.6,0.9
					c13.4,5.8,15.4,7.5,20.5,20c2.9,6.6,5.2,13.4,6.7,20.4c-1.5-1.8-3.8-2.8-6.2-2.7h-1c-0.5-5.3-6.2-9.3-13.9-9.3
					c-6.7,0-12.3,3.1-13.4,7.5c-2-0.5-4.1-0.8-6.2-0.9c-6.2,0-10.8,2.2-10.8,4.4c-0.1,0.5,0.1,1,0.5,1.3c-4.1,0.9-7.7,2.7-8.7,4.9
					h-3.6c-9.2,0-16.9,1.8-16.9,4.4c0,2.2,7.7,4.4,16.9,4.4h5.1c-1,0.9-2.1,1.8-2.1,2.7c0,2.7,4.6,5.3,10.8,5.3
					c3.1,0,6.2-0.4,8.2-1.8c3,0.9,6.1,1.4,9.2,1.3h1.5c0,3.5,2.6,6.7,5.6,6.7s5.6-3.1,5.6-6.7h3.1c8.7,0,15.9-1.8,15.9-4
					c0.1-0.5-0.1-1-0.5-1.3L229.6,199.5z"/>
			</g>
		</g>
		<g id="noun_Tree_1976422-4" transform="translate(1172 786.419)">
			<g id="Group_66-4">
				<path id="Path_42-4" class="st6" d="M189,289l-52,1c9-20,12-55,11-68c-18-11-37-27-51-47c-9,2-18,1-26-4c-26,13-63-1-63-26
					c0-19,22-33,45-31c10-28,41-37,61-17c18-10,39-2,46,17c8,0,16,4,20,11c-23,5-41,25-32,46c-2.6,1.2-5.3,2.2-8,3v29
					c3.4,2.7,7.1,5,11,7l1-32c4.6,4.9,10,8.9,16,12l1,8l3-6c2,0,3,1,4,1s3,0,4,1l-7,15l1,5l30-15l-1-5c2-1,3-1,5-2l1,3l7-3
					c3,1,6,2,9,2l-48,30C176,249,180,270,189,289z M190,61c-7-24-48-24-58,5c-9-4-27,4-30,17c5,2,9,5,13,8
					c18.3-8.1,39.7,0.2,47.8,18.5c0.1,0.2,0.1,0.3,0.2,0.5c10,0,17,6,22,14h8c11-28,42-37,64-19c4-1,0-28-22-27
					C229,59,207,51,190,61z M302,129c-6-19-28-28-45-18c-21-20-52-11-61,18c-27-2-55,17-42,43c9,17,38,24,60,13
					c11.4,7.2,26,6.8,37-1c18,10,49,4,52-12c12.1-0.1,21.9-9.9,22-22C325,138,314,128,302,129z M104,173c9,9,19,21,30,26l2-25
					c-9,1-19,0-27-4C107.2,170.8,105.5,171.8,104,173z"/>
			</g>
		</g>
	</g>
	<path id="Path_45" class="st7" d="M355.2,1076l126.2-32.4c0,0,9.4-14,72.6-10.7c63.2,3.3,190.6-6.5,255.6,0c65,6.5,202.8,7,263.4,0
		s277.4,7.3,294.2,7.3s93.6-3.6,132.2,0s113.4,35.8,113.4,35.8H355.2z"/>
</g>
</svg>
