<svg xmlns="http://www.w3.org/2000/svg" width="1266.824" height="369.754" viewBox="0 0 1266.824 369.754">
  <g id="Group_93" data-name="Group 93" transform="translate(-355.176 -706.246)">
    <g id="Group_69" data-name="Group 69" transform="translate(0 -35)">
      <g id="noun_Tree_1663571" transform="translate(405.993 734.461)">
        <path id="Path_43" data-name="Path 43" d="M20.137,126.448A52.938,52.938,0,0,1,16,105.916c0-27.241,20.23-49.333,45.255-49.547,4.857-21.7,22.81-37.816,44.27-37.816a42.732,42.732,0,0,1,23.9,7.4c8.346-11.649,21.34-19.169,35.982-19.169,22.8,0,41.634,18.19,45.017,41.936a43.142,43.142,0,0,1,5.728-.428c25.192,0,45.623,22.195,45.623,49.568,0,.568-.061,1.116-.08,1.675,13.668,8.566,22.885,24.566,22.885,42.932a51.248,51.248,0,0,1-16.256,37.91,52.954,52.954,0,0,1,.288,5.458c0,27.369-20.423,49.568-45.615,49.568a42.578,42.578,0,0,1-24.245-7.776c-10.157,11.052-22.567,7.232-26.215,21.713-14.725,58.364,8.554,92.627,8.554,92.627H126.062s26.238-67.844,4.845-83.337c-5.387-3.894-10.952-9.858-16.108-16.37a42.877,42.877,0,0,1-26.378,9.249c-25,0-45.278-21.87-45.577-48.954-18.229-6.5-31.394-25.1-31.394-47.077A52.158,52.158,0,0,1,20.137,126.448Zm155.53,101.518a148.4,148.4,0,0,0,16.263-6.088,50.5,50.5,0,0,1-13.02-23.45,64.483,64.483,0,0,1-16.593,11.632C159.9,221.957,161.165,232.556,175.667,227.966Zm-23.1,2.169a102.375,102.375,0,0,1,.6-16.465,59.048,59.048,0,0,1-14.657,2.4C145.318,236.018,153.588,255.73,152.569,230.135Zm-10.831,17.037a61.294,61.294,0,0,1-12.092-24.109,50.171,50.171,0,0,1-6.8,11.171C132.957,241.591,141.738,247.173,141.738,247.173Z" transform="translate(0 0)" fill="#b9b9b9"/>
      </g>
      <g id="noun_Tree_1976422" transform="translate(385 786.419)">
        <g id="Group_66" data-name="Group 66">
          <path id="Path_42" data-name="Path 42" d="M189,289l-52,1c9-20,12-55,11-68-18-11-37-27-51-47-9,2-18,1-26-4-26,13-63-1-63-26,0-19,22-33,45-31,10-28,41-37,61-17,18-10,39-2,46,17,8,0,16,4,20,11-23,5-41,25-32,46a68.9,68.9,0,0,1-8,3v29a67.262,67.262,0,0,0,11,7l1-32a61.005,61.005,0,0,0,16,12l1,8,3-6c2,0,3,1,4,1s3,0,4,1l-7,15,1,5,30-15-1-5c2-1,3-1,5-2l1,3,7-3c3,1,6,2,9,2l-48,30C176,249,180,270,189,289Zm1-228c-7-24-48-24-58,5-9-4-27,4-30,17,5,2,9,5,13,8a36.256,36.256,0,0,1,48,19c10,0,17,6,22,14h8c11-28,42-37,64-19,4-1,0-28-22-27C229,59,207,51,190,61Zm112,68c-6-19-28-28-45-18-21-20-52-11-61,18-27-2-55,17-42,43,9,17,38,24,60,13a33.265,33.265,0,0,0,37-1c18,10,49,4,52-12a22.2,22.2,0,0,0,22-22C325,138,314,128,302,129ZM104,173c9,9,19,21,30,26l2-25c-9,1-19,0-27-4A21.859,21.859,0,0,0,104,173Z" fill="#959595" fill-rule="evenodd"/>
        </g>
      </g>
      <g id="noun_Tree_1976422-2" data-name="noun_Tree_1976422" transform="translate(926.48 865.257)">
        <g id="Group_66-2" data-name="Group 66" transform="translate(8 43.581)">
          <path id="Path_42-2" data-name="Path 42" d="M131.092,210.482l-35.363.68c6.121-13.6,8.161-37.4,7.481-46.244-12.241-7.481-25.162-18.362-34.683-31.963a23.087,23.087,0,0,1-17.682-2.72C33.162,139.075,8,129.554,8,112.553,8,99.631,22.961,90.11,38.6,91.47c6.8-19.042,27.883-25.162,41.484-11.561,12.241-6.8,26.523-1.36,31.283,11.561a15.679,15.679,0,0,1,13.6,7.481c-15.642,3.4-27.883,17-21.762,31.283a46.855,46.855,0,0,1-5.441,2.04V152a45.741,45.741,0,0,0,7.481,4.76l.68-21.762a41.487,41.487,0,0,0,10.881,8.161l.68,5.441,2.04-4.08c1.36,0,2.04.68,2.72.68a4.089,4.089,0,0,1,2.72.68l-4.76,10.2.68,3.4,20.4-10.2-.68-3.4c1.36-.68,2.04-.68,3.4-1.36l.68,2.04,4.76-2.04a19.857,19.857,0,0,0,6.121,1.36l-32.643,20.4C122.251,183.279,124.971,197.561,131.092,210.482Zm.68-155.055c-4.76-16.322-32.643-16.322-39.444,3.4-6.121-2.72-18.362,2.72-20.4,11.561a38.557,38.557,0,0,1,8.841,5.441A24.657,24.657,0,0,1,113.41,88.75c6.8,0,11.561,4.08,14.961,9.521h5.441c7.481-19.042,28.563-25.162,43.524-12.921,2.72-.68,0-19.042-14.961-18.362A20.867,20.867,0,0,0,131.772,55.427Zm76.167,46.244c-4.08-12.921-19.042-19.042-30.6-12.241-14.281-13.6-35.363-7.481-41.484,12.241-18.362-1.36-37.4,11.561-28.563,29.243,6.121,11.561,25.843,16.322,40.8,8.841a22.623,22.623,0,0,0,25.162-.68c12.241,6.8,33.323,2.72,35.363-8.161a15.094,15.094,0,0,0,14.961-14.961A14.685,14.685,0,0,0,207.939,101.671ZM73.286,131.594c6.121,6.121,12.921,14.281,20.4,17.682l1.36-17c-6.121.68-12.921,0-18.362-2.72A14.865,14.865,0,0,0,73.286,131.594Z" transform="translate(-8 -43.581)" fill="#c4c4c4" fill-rule="evenodd"/>
        </g>
      </g>
      <g id="noun_Tree_1976422-3" data-name="noun_Tree_1976422" transform="translate(601.48 786.419)">
        <g id="Group_66-3" data-name="Group 66" transform="translate(8 43.581)">
          <path id="Path_42-3" data-name="Path 42" d="M189,289l-52,1c9-20,12-55,11-68-18-11-37-27-51-47-9,2-18,1-26-4-26,13-63-1-63-26,0-19,22-33,45-31,10-28,41-37,61-17,18-10,39-2,46,17,8,0,16,4,20,11-23,5-41,25-32,46a68.9,68.9,0,0,1-8,3v29a67.259,67.259,0,0,0,11,7l1-32a61,61,0,0,0,16,12l1,8,3-6c2,0,3,1,4,1s3,0,4,1l-7,15,1,5,30-15-1-5c2-1,3-1,5-2l1,3,7-3c3,1,6,2,9,2l-48,30C176,249,180,270,189,289Zm1-228c-7-24-48-24-58,5-9-4-27,4-30,17,5,2,9,5,13,8a36.256,36.256,0,0,1,48,19c10,0,17,6,22,14h8c11-28,42-37,64-19,4-1,0-28-22-27C229,59,207,51,190,61Zm112,68c-6-19-28-28-45-18-21-20-52-11-61,18-27-2-55,17-42,43,9,17,38,24,60,13a33.265,33.265,0,0,0,37-1c18,10,49,4,52-12a22.2,22.2,0,0,0,22-22C325,138,314,128,302,129ZM104,173c9,9,19,21,30,26l2-25c-9,1-19,0-27-4A21.86,21.86,0,0,0,104,173Z" transform="translate(-8 -43.581)" fill="#acacac" fill-rule="evenodd"/>
        </g>
      </g>
      <g id="noun_Tree_1663571-2" data-name="noun_Tree_1663571" transform="translate(525.619 906.765)">
        <path id="Path_43-2" data-name="Path 43" d="M151.076,64.934A24.042,24.042,0,0,0,129.365,30.88,24.022,24.022,0,0,0,93.372,16.1,24.044,24.044,0,0,0,50.6,27.164a24.715,24.715,0,0,0-3.024-.208A24.09,24.09,0,0,0,23.492,51.043c0,.276.032.542.042.814a24.056,24.056,0,0,0-3.5,39.285,23.7,23.7,0,0,0-.152,2.652,24.088,24.088,0,0,0,24.085,24.087,23.832,23.832,0,0,0,12.8-3.778c5.363,5.371,11.915,3.514,13.842,10.551,7.775,28.362-4.517,45.012-4.517,45.012H95.146s-13.854-32.968-2.558-40.5a44.728,44.728,0,0,0,8.505-7.955,24.008,24.008,0,0,0,37.993-19.294,24.048,24.048,0,0,0,11.99-36.985Zm-82.12,49.332a82.712,82.712,0,0,1-8.587-2.958,24.084,24.084,0,0,0,6.875-11.4A34.22,34.22,0,0,0,76,105.565C77.282,111.346,76.612,116.5,68.955,114.266Zm12.2,1.054a45.818,45.818,0,0,0-.316-8,33.652,33.652,0,0,0,7.739,1.168C84.979,118.179,80.613,127.758,81.151,115.321Zm5.719,8.279a28.926,28.926,0,0,0,6.385-11.715,24.111,24.111,0,0,0,3.592,5.429C91.506,120.887,86.869,123.6,86.869,123.6Z" transform="translate(0 0)" fill="#b9b9b9"/>
      </g>
      <g id="noun_Tree_1663571-3" data-name="noun_Tree_1663571" transform="translate(1039.993 849.929)">
        <path id="Path_43-3" data-name="Path 43" d="M17.144,85.225a34.7,34.7,0,0,1-2.712-13.459c0-17.857,13.261-32.338,29.665-32.478C47.281,25.065,59.05,14.5,73.117,14.5a28.011,28.011,0,0,1,15.665,4.851A29.055,29.055,0,0,1,112.368,6.785c14.944,0,27.291,11.923,29.509,27.489a28.279,28.279,0,0,1,3.755-.281c16.514,0,29.906,14.549,29.906,32.492,0,.372-.04.731-.052,1.1,8.96,5.615,15,16.1,15,28.142a33.593,33.593,0,0,1-10.656,24.851,34.71,34.71,0,0,1,.189,3.578c0,17.94-13.387,32.492-29.9,32.492a27.91,27.91,0,0,1-15.893-5.1c-6.658,7.245-14.793,4.741-17.184,14.233-9.653,38.258,5.607,60.718,5.607,60.718H86.579s17.2-44.472,3.176-54.628A57.669,57.669,0,0,1,79.2,161.142,28.106,28.106,0,0,1,61.905,167.2c-16.385,0-29.68-14.336-29.876-32.09-11.95-4.26-20.579-16.456-20.579-30.859A34.19,34.19,0,0,1,17.144,85.225ZM119.1,151.771a97.28,97.28,0,0,0,10.661-3.991,33.1,33.1,0,0,1-8.535-15.372,42.269,42.269,0,0,1-10.877,7.625C108.757,147.831,109.589,154.779,119.1,151.771Zm-15.141,1.422a67.109,67.109,0,0,1,.392-10.793,38.706,38.706,0,0,1-9.608,1.576C99.2,157.049,104.623,169.97,103.955,153.193Zm-7.1,11.168a40.178,40.178,0,0,1-7.927-15.8,32.888,32.888,0,0,1-4.46,7.323C91.1,160.7,96.855,164.361,96.855,164.361Z" transform="translate(0)" fill="#9f9f9f"/>
      </g>
      <g id="noun_Tree_1663571-4" data-name="noun_Tree_1663571" transform="translate(1106.993 799.651)">
        <path id="Path_43-4" data-name="Path 43" d="M18.447,103.175a42.642,42.642,0,0,1-3.332-16.539c0-21.943,16.3-39.738,36.454-39.911,3.912-17.477,18.373-30.461,35.66-30.461a34.421,34.421,0,0,1,19.249,5.962c6.723-9.383,17.189-15.441,28.984-15.441,18.364,0,33.536,14.652,36.261,33.78a34.751,34.751,0,0,1,4.614-.345c20.293,0,36.75,17.878,36.75,39.927,0,.458-.049.9-.064,1.349,11.01,6.9,18.434,19.788,18.434,34.582a41.281,41.281,0,0,1-13.094,30.537,42.656,42.656,0,0,1,.232,4.4c0,22.046-16.451,39.927-36.744,39.927a34.3,34.3,0,0,1-19.53-6.263c-8.181,8.9-18.178,5.826-21.117,17.49-11.861,47.013,6.89,74.612,6.89,74.612H103.771s21.135-54.649,3.9-67.129c-4.339-3.137-8.822-7.941-12.975-13.186a34.538,34.538,0,0,1-21.248,7.45c-20.134,0-36.472-17.616-36.713-39.433C22.054,159.246,11.45,144.259,11.45,126.56A42.014,42.014,0,0,1,18.447,103.175Zm125.281,81.774a119.539,119.539,0,0,0,13.1-4.9,40.676,40.676,0,0,1-10.488-18.889,51.942,51.942,0,0,1-13.366,9.37C131.025,180.108,132.047,188.646,143.728,184.949ZM125.123,186.7a82.465,82.465,0,0,1,.482-13.263A47.564,47.564,0,0,1,113.8,175.37C119.282,191.434,125.944,207.313,125.123,186.7ZM116.4,200.42A49.373,49.373,0,0,1,106.658,181a40.414,40.414,0,0,1-5.481,9C109.325,195.924,116.4,200.42,116.4,200.42Z" transform="translate(0)" fill="#b9b9b9"/>
      </g>
      <g id="noun_Tree_1663571-5" data-name="noun_Tree_1663571" transform="translate(1176.993 756.622)">
        <path id="Path_43-5" data-name="Path 43" d="M19.562,118.536A49.438,49.438,0,0,1,15.7,99.362c0-25.44,18.892-46.071,42.263-46.271,4.536-20.262,21.3-35.316,41.343-35.316a39.906,39.906,0,0,1,22.317,6.912c7.794-10.879,19.929-17.9,33.6-17.9,21.291,0,38.881,16.987,42.04,39.163a40.289,40.289,0,0,1,5.349-.4c23.527,0,42.607,20.727,42.607,46.29,0,.531-.057,1.042-.074,1.565,12.765,8,21.372,22.941,21.372,40.094a47.86,47.86,0,0,1-15.181,35.4,49.456,49.456,0,0,1,.269,5.1c0,25.559-19.073,46.29-42.6,46.29a39.763,39.763,0,0,1-22.642-7.261c-9.485,10.321-21.075,6.754-24.482,20.278-13.752,54.505,7.989,86.5,7.989,86.5H118.485s24.5-63.358,4.525-77.827c-5.031-3.637-10.228-9.207-15.043-15.288a40.042,40.042,0,0,1-24.634,8.638c-23.343,0-42.285-20.424-42.564-45.718-17.024-6.07-29.318-23.445-29.318-43.965A48.71,48.71,0,0,1,19.562,118.536Zm145.247,94.807A138.589,138.589,0,0,0,180,207.657a47.159,47.159,0,0,1-12.16-21.9,60.22,60.22,0,0,1-15.5,10.863C150.081,207.73,151.266,217.629,164.809,213.343Zm-21.57,2.026a95.61,95.61,0,0,1,.559-15.376,55.144,55.144,0,0,1-13.688,2.245C136.468,220.862,144.191,239.271,143.239,215.368Zm-10.115,15.911a57.241,57.241,0,0,1-11.293-22.515,46.854,46.854,0,0,1-6.354,10.433C124.923,226.067,133.124,231.279,133.124,231.279Z" transform="translate(0 0)" fill="#9f9f9f"/>
      </g>
      <g id="noun_Tree_2564274" transform="translate(615 884.714)">
        <g id="Group_67" data-name="Group 67" transform="translate(4)">
          <path id="Path_44" data-name="Path 44" d="M103.941,117.5c1.277.958,2.235,2.235,3.512,3.193,1.916,1.916,5.428,5.747,8.3,4.151,4.47-2.235,9.579-13.091,13.091-17.562s7.344-5.747,12.133-7.663c.319,0,.639-.319,1.277-.319v-.319a3.449,3.449,0,0,1,.958-2.235,12.812,12.812,0,0,1-.958-4.79V91.64c-.958,0-1.916.319-2.554.319a20.557,20.557,0,0,1-8.94,2.235A18.21,18.21,0,0,1,118.31,89.4c-3.832,2.554-8.94,3.832-14.369,3.832h-2.235v.958a2.41,2.41,0,0,1,1.277,2.235,2.76,2.76,0,0,1-.958,1.916,8.5,8.5,0,0,1,.958,3.832v.319a11.972,11.972,0,0,1,3.512-.319c6.386,0,11.495,2.874,11.495,6.386s-5.109,6.386-11.495,6.386h-1.277a9.446,9.446,0,0,1-.639,3.193Zm21.393,26.183a4.05,4.05,0,0,1-.319-1.916H123.1a11.2,11.2,0,0,0-.319,8.621c1.277,3.832-.958,8.621,0,13.73.639,2.554,1.277,6.705.319,9.26a13.4,13.4,0,0,0-.639,8.621c.639,4.151,1.277,4.151,0,8.621a14.355,14.355,0,0,0,.319,7.344c.958,4.47,1.6,5.428,5.428,8.3a11.026,11.026,0,0,1,4.375,7.509c6.5,7.378-1.146,6.064-6.291,6.221-.639-.319-25.225-1.277-27.46,0-1.6.958-1.916-9.9.958-15.007,2.554-4.79,2.235-3.832,2.235-9.579V187.43c-.319-4.151-3.832-5.109-1.6-10.856s1.6-5.109.958-11.176c-.319-4.151.639-5.109-.639-9.26-.958-3.193-1.6-5.428.958-8.3,1.916-1.916,1.916-2.235,1.277-5.109a22.125,22.125,0,0,1-.958-6.386v-2.235a32.1,32.1,0,0,0-2.235-9.9A9.5,9.5,0,0,1,95,125.8h-.958c-.639,7.344-7.983,13.411-16.923,13.411-8.3,0-15.007-4.79-16.6-11.176a27.444,27.444,0,0,1-7.663,1.277c-7.344,0-13.411-2.874-13.411-6.386a4.538,4.538,0,0,1,.639-1.916c-5.428-1.6-9.26-4.151-10.856-7.344H25.074C13.26,113.671,4,110.8,4,107.285s9.579-6.386,21.074-6.386a40.71,40.71,0,0,1,6.386.319,5.026,5.026,0,0,1-2.235-4.151c0-4.151,6.067-7.344,13.411-7.344a18.959,18.959,0,0,1,9.9,2.554,25.363,25.363,0,0,1,10.218-1.916c-5.109-2.235-7.983-5.109-7.983-8.3a7.278,7.278,0,0,1,.958-3.512,27.942,27.942,0,0,1-.958-7.663v-.639a18.845,18.845,0,0,1-4.47.639c-7.983,0-14.369-5.428-14.369-11.814,0-6.705,6.386-11.814,14.369-11.814h1.6c.319-12.133,6.067-21.713,12.772-21.713h1.277C66.583,11.176,75.843,0,87.338,0c10.218,0,18.839,9.26,21.074,21.393a23.467,23.467,0,0,1,9.579-2.235c9.26,0,16.923,5.428,16.923,12.453a11.479,11.479,0,0,1-.639,3.512c6.705,2.874,11.814,7.663,13.73,13.73,1.6,0,3.512-.319,5.109-.319a78.494,78.494,0,0,1,8.94.639,23.609,23.609,0,0,1,13.411-3.832c10.218,0,18.839,6.067,21.074,14.049a30.257,30.257,0,0,1,9.579-1.277c9.26,0,16.923,3.512,16.923,7.983a4.615,4.615,0,0,1-.639,2.235c6.705,1.916,11.814,5.109,13.73,8.94h5.109c14.688,0,26.821,3.512,26.821,7.983s-11.814,7.983-26.821,7.983a64.126,64.126,0,0,1-7.983-.319c1.916,1.6,2.874,3.193,2.874,5.109,0,5.109-7.663,9.26-16.923,9.26a23.917,23.917,0,0,1-12.453-3.193,38.529,38.529,0,0,1-14.369,2.554h-2.235c0,6.705-4.151,12.133-8.94,12.133s-8.94-5.428-8.94-12.133h-4.79c-10.537,0-19.158-1.916-22.99-4.47-.639.319-1.277.319-1.6.639-8.3,4.151-9.579,5.428-12.772,14.369a84.4,84.4,0,0,0-4.151,14.688,4.552,4.552,0,0,1,3.832-1.916h.639c.319-3.832,3.832-6.705,8.621-6.705,4.151,0,7.663,2.235,8.3,5.428a13.722,13.722,0,0,1,3.832-.639c3.832,0,6.705,1.6,6.705,3.193a1.173,1.173,0,0,1-.319.958c2.554.639,4.79,1.916,5.428,3.512h2.235c5.747,0,10.537,1.277,10.537,3.193,0,1.6-4.79,3.193-10.537,3.193h-3.193c.639.639,1.277,1.277,1.277,1.916,0,1.916-2.874,3.832-6.705,3.832a8.7,8.7,0,0,1-5.109-1.277,15.468,15.468,0,0,1-5.747.958h-.958c0,2.554-1.6,4.79-3.512,4.79s-3.512-2.235-3.512-4.79h-1.916c-5.428,0-9.9-1.277-9.9-2.874a1.173,1.173,0,0,1,.319-.958Z" transform="translate(-34 -28)" fill="#cbcbc8" fill-rule="evenodd"/>
        </g>
      </g>
      <g id="noun_Tree_2564274-2" data-name="noun_Tree_2564274" transform="translate(1223.238 799.21)">
        <g id="Group_67-2" data-name="Group 67" transform="translate(-26 -28)">
          <path id="Path_44-2" data-name="Path 44" d="M268,163.159c-2.054,1.33-3.6,3.1-5.65,4.434-3.082,2.66-8.731,7.981-13.354,5.764-7.191-3.1-15.409-18.178-21.058-24.385s-11.813-7.981-19.517-10.641c-.514,0-1.027-.443-2.054-.443v-.443a4.483,4.483,0,0,0-1.541-3.1,15.7,15.7,0,0,0,1.541-6.651v-.443c1.541,0,3.082.443,4.109.443a37.324,37.324,0,0,0,14.381,3.1,32,32,0,0,0,20.031-6.651c6.163,3.547,14.381,5.32,23.113,5.32h3.6v1.33c-1.541.887-2.054,1.773-2.054,3.1a3.66,3.66,0,0,0,1.541,2.66,10.535,10.535,0,0,0-1.541,5.32v.443a22.2,22.2,0,0,0-5.65-.443c-10.272,0-18.49,3.99-18.49,8.867s8.218,8.867,18.49,8.867h2.054a11.581,11.581,0,0,0,1.027,4.434Zm-34.412,36.356a4.943,4.943,0,0,0,.514-2.66h3.082c1.541,3.547,2.568,6.65.514,11.971s1.541,11.971,0,19.065c-1.027,3.547-2.054,9.311-.514,12.858,2.054,4.877,2.054,7.094,1.027,11.971-1.027,5.764-2.054,5.764,0,11.971,1.027,3.547.514,6.651-.514,10.2-1.541,6.207-2.568,7.537-8.732,11.527a15.076,15.076,0,0,0-7.038,10.427c-10.451,10.245,1.843,8.421,10.12,8.638,1.027-.443,40.576-1.773,44.171,0,2.568,1.33,3.082-13.744-1.541-20.838-4.109-6.65-3.6-5.32-3.6-13.3V260.256c.514-5.764,6.163-7.094,2.568-15.074s-2.568-7.094-1.541-15.518c.514-5.764-1.027-7.094,1.027-12.858,1.541-4.434,2.568-7.537-1.541-11.528-3.082-2.66-3.082-3.1-2.054-7.094a26.864,26.864,0,0,0,1.541-8.867v-3.1a39.524,39.524,0,0,1,3.6-13.744,16.98,16.98,0,0,0,7.7,2.217h1.541c1.027,10.2,12.84,18.621,27.222,18.621,13.354,0,24.14-6.651,26.708-15.518a50.535,50.535,0,0,0,12.327,1.773c11.813,0,21.572-3.99,21.572-8.867a5.734,5.734,0,0,0-1.027-2.66c8.732-2.217,14.895-5.764,17.463-10.2h6.677c19,0,33.9-3.99,33.9-8.867s-15.409-8.867-33.9-8.867a75.754,75.754,0,0,0-10.272.443c2.568-1.773,3.6-3.547,3.6-5.764,0-5.764-9.759-10.2-21.572-10.2a34.3,34.3,0,0,0-15.922,3.547,46.507,46.507,0,0,0-16.436-2.66c8.218-3.1,12.84-7.094,12.84-11.528a9.068,9.068,0,0,0-1.541-4.877A33.82,33.82,0,0,0,347.1,98.427v-.887a34.811,34.811,0,0,0,7.191.887c12.84,0,23.113-7.537,23.113-16.4,0-9.311-10.272-16.4-23.113-16.4h-2.568c-.514-16.848-9.759-30.149-20.545-30.149H329.12C328.093,15.518,313.2,0,294.708,0c-16.436,0-30.3,12.858-33.9,29.706A42.742,42.742,0,0,0,245.4,26.6c-14.895,0-27.222,7.537-27.222,17.291a14.018,14.018,0,0,0,1.027,4.877c-10.786,3.99-19,10.641-22.086,19.065-2.568,0-5.65-.443-8.218-.443-5.136,0-9.759.443-14.381.887a42.488,42.488,0,0,0-21.572-5.32c-16.436,0-30.3,8.424-33.9,19.508a55.9,55.9,0,0,0-15.409-1.773c-14.895,0-27.222,4.877-27.222,11.084a5.781,5.781,0,0,0,1.027,3.1c-10.786,2.66-19,7.094-22.086,12.414H47.144C23.517,107.295,4,112.172,4,118.379s19,11.084,43.144,11.084a119.391,119.391,0,0,0,12.84-.443c-3.082,2.217-4.623,4.434-4.623,7.094,0,7.094,12.327,12.858,27.222,12.858a43.274,43.274,0,0,0,20.031-4.434,70.761,70.761,0,0,0,23.113,3.547h3.6c0,9.311,6.677,16.848,14.381,16.848s14.381-7.537,14.381-16.848h7.7c16.949,0,30.817-2.66,36.98-6.207,1.027.443,2.054.443,2.568.887,13.354,5.764,15.409,7.537,20.545,19.952a105.078,105.078,0,0,1,6.677,20.395,7.757,7.757,0,0,0-6.163-2.66h-1.027c-.514-5.32-6.163-9.311-13.868-9.311-6.677,0-12.327,3.1-13.354,7.537a25.267,25.267,0,0,0-6.163-.887c-6.163,0-10.786,2.217-10.786,4.434a1.492,1.492,0,0,0,.514,1.33c-4.109.887-7.7,2.66-8.731,4.877h-3.6c-9.245,0-16.949,1.773-16.949,4.434,0,2.217,7.7,4.434,16.949,4.434h5.136c-1.027.887-2.054,1.773-2.054,2.66,0,2.66,4.623,5.32,10.786,5.32,3.082,0,6.163-.443,8.218-1.773a28.449,28.449,0,0,0,9.245,1.33h1.541c0,3.547,2.568,6.651,5.65,6.651s5.65-3.1,5.65-6.651h3.082c8.732,0,15.922-1.773,15.922-3.99a1.492,1.492,0,0,0-.514-1.33Z" transform="translate(-4)" fill="#cbcbc8" fill-rule="evenodd"/>
        </g>
      </g>
      <g id="noun_Tree_1976422-4" data-name="noun_Tree_1976422" transform="translate(1172 786.419)">
        <g id="Group_66-4" data-name="Group 66">
          <path id="Path_42-4" data-name="Path 42" d="M189,289l-52,1c9-20,12-55,11-68-18-11-37-27-51-47-9,2-18,1-26-4-26,13-63-1-63-26,0-19,22-33,45-31,10-28,41-37,61-17,18-10,39-2,46,17,8,0,16,4,20,11-23,5-41,25-32,46a68.9,68.9,0,0,1-8,3v29a67.262,67.262,0,0,0,11,7l1-32a61.005,61.005,0,0,0,16,12l1,8,3-6c2,0,3,1,4,1s3,0,4,1l-7,15,1,5,30-15-1-5c2-1,3-1,5-2l1,3,7-3c3,1,6,2,9,2l-48,30C176,249,180,270,189,289Zm1-228c-7-24-48-24-58,5-9-4-27,4-30,17,5,2,9,5,13,8a36.256,36.256,0,0,1,48,19c10,0,17,6,22,14h8c11-28,42-37,64-19,4-1,0-28-22-27C229,59,207,51,190,61Zm112,68c-6-19-28-28-45-18-21-20-52-11-61,18-27-2-55,17-42,43,9,17,38,24,60,13a33.265,33.265,0,0,0,37-1c18,10,49,4,52-12a22.2,22.2,0,0,0,22-22C325,138,314,128,302,129ZM104,173c9,9,19,21,30,26l2-25c-9,1-19,0-27-4A21.859,21.859,0,0,0,104,173Z" fill="#a8a8a8" fill-rule="evenodd"/>
        </g>
      </g>
    </g>
    <path id="Path_45" data-name="Path 45" d="M9266.176,936l126.2-32.408s9.376-14.009,72.617-10.749,190.607-6.483,255.569,0,202.813,7.011,263.425,0,277.407,7.348,294.182,7.348,93.616-3.631,132.209,0S10523.8,936,10523.8,936Z" transform="translate(-8911 140)" fill="#d9d9d9"/>
  </g>
</svg>
