<svg xmlns="http://www.w3.org/2000/svg" xmlns:xlink="http://www.w3.org/1999/xlink" width="1000" height="916" viewBox="0 0 1000 916">
  <defs>
    <clipPath id="clip-Web_1920_3">
      <rect width="1000" height="916"/>
    </clipPath>
  </defs>
  <g id="Web_1920_3" data-name="Web 1920 – 3" clip-path="url(#clip-Web_1920_3)">
    <rect width="1000" height="916" fill="#fff"/>
    <g id="Group_85" data-name="Group 85" transform="translate(0 -82.109)">
      <path id="chuttersnap-gts_Eh4g1lk-unsplashbw" d="M0,0H400.835V758.817H0Z" transform="translate(20 191.988)" fill="#fff"/>
      <path id="Path_21" data-name="Path 21" d="M45.382,230.98h16.77q-2.516,3.354-4.863,6.876a141.037,141.037,0,0,0-23.227,81.419V480.1a33.54,33.54,0,0,0,33.54,33.54h43.518a33.54,33.54,0,0,0,33.54-33.54V454.945H523V480.1a33.54,33.54,0,0,0,33.54,33.54h43.518a33.54,33.54,0,0,0,33.54-33.54V319.359a141.038,141.038,0,0,0-23.227-81.419q-2.348-3.438-4.863-6.876h16.77a34.63,34.63,0,0,0,33.54-33.54c0-9.224,0-16.77,0-23.9a33.54,33.54,0,0,0-32.7-32.869H610.7a56.684,56.684,0,0,0-37.565,16.77c-16.015-39.829-36.223-85.108-48.8-103.3a112.947,112.947,0,0,0-77.73-45.2A649.835,649.835,0,0,0,333.66,1.146h0A649.856,649.856,0,0,0,220.8,8.441a112.947,112.947,0,0,0-77.73,45.2c-12.661,18.2-32.786,63.391-48.8,103.3A56.683,56.683,0,0,0,56.7,140.17H44.292a33.54,33.54,0,0,0-32.7,32.869v23.9A34.63,34.63,0,0,0,45.382,230.98Zm407.85,54L514.778,268.8a26.161,26.161,0,0,1,32.786,25.155v16.183A26.161,26.161,0,0,1,521.4,336.548H459.436a26.161,26.161,0,0,1-6.624-51.484Zm-333.474,9.14a26.161,26.161,0,0,1,32.786-25.155l61.546,16.183a26.161,26.161,0,0,1-6.2,51.4H145.919a26.161,26.161,0,0,1-26.161-26.161Z" transform="translate(68.02 391.614)" fill="#617c7b"/>
      <path id="chuttersnap-gts_Eh4g1lk-unsplashbw-2" data-name="chuttersnap-gts_Eh4g1lk-unsplashbw" d="M0,0H425.322V758.817H0Z" transform="translate(87 191.988)" fill="#b5b5b5" opacity="0.177"/>
      <text id="TRANSPORT" transform="translate(43.703 130.109) rotate(90)" font-size="59" font-family="Roboto-Bold, Roboto" font-weight="700"><tspan x="0" y="0">TRANSPORT</tspan></text>
      <path id="Path_37" data-name="Path 37" d="M12.27,180.675V126.689a54.963,54.963,0,0,0,9.242,12.36L90.15,207.687a54.775,54.775,0,0,0,35.239,15.967V335.42a5.635,5.635,0,0,1-1.653,3.982l-28.7,28.7a3.757,3.757,0,0,1-5.41,0L61.072,339.552a5.673,5.673,0,0,1-1.653-4.133v-14.2a6.574,6.574,0,0,1,1.916-4.583l15.253-15.253a2.517,2.517,0,0,0,0-3.569L63.025,284.252a8.678,8.678,0,0,1,0-12.247l13.562-13.562a2.517,2.517,0,0,0,0-3.569L61.335,239.62a6.612,6.612,0,0,1-1.954-4.659V215.2h-12.7A34.413,34.413,0,0,1,12.27,180.675ZM36.2,124.322a34.413,34.413,0,0,1,0-48.839l64.505-64.355a34.45,34.45,0,0,1,48.839,0l68.337,68.525a34.413,34.413,0,0,1,0,48.839l-8.979,8.979,85.205,85.055a5.635,5.635,0,0,1,1.653,3.945v40.424a3.757,3.757,0,0,1-3.757,3.757H251.694A5.673,5.673,0,0,1,247.712,269l-10.143-10.143a6.575,6.575,0,0,1-1.916-4.658V232.632a2.517,2.517,0,0,0-2.743-2.4H213.75a8.678,8.678,0,0,1-8.678-8.678V202.277a2.517,2.517,0,0,0-2.517-2.517H180.99a6.612,6.612,0,0,1-4.7-1.954l-13.938-13.938-8.979,8.979a34.45,34.45,0,0,1-48.839,0ZM87.971,88.444a18.025,18.025,0,1,0,0,.038Z" transform="translate(315.968 451.139)" fill="#beb891"/>
    </g>
  </g>
</svg>
