<svg xmlns="http://www.w3.org/2000/svg" xmlns:xlink="http://www.w3.org/1999/xlink" width="1000" height="1019" viewBox="0 0 1000 1019">
  <defs>
    <clipPath id="clip-Web_1920_13">
      <rect width="1000" height="1019"/>
    </clipPath>
  </defs>
  <g id="Web_1920_13" data-name="Web 1920 – 13" clip-path="url(#clip-Web_1920_13)">
    <rect width="1000" height="1019" fill="#fff"/>
    <g id="Group_102" data-name="Group 102" transform="translate(-476 -122)">
      <path id="chuttersnap-gts_Eh4g1lk-unsplashbw" d="M0,0H400.835V787.379H0Z" transform="translate(496 231.988)" fill="#fff"/>
      <path id="chuttersnap-gts_Eh4g1lk-unsplashbw-2" data-name="chuttersnap-gts_Eh4g1lk-unsplashbw" d="M0,0H425.322V787.379H0Z" transform="translate(563 231.988)" fill="#b5b5b5" opacity="0.177"/>
      <path id="chuttersnap-gts_Eh4g1lk-unsplashbw-3" data-name="chuttersnap-gts_Eh4g1lk-unsplashbw" d="M0,0H510.782V683.237H0Z" transform="translate(946 170.109)" fill="#fff"/>
      <text id="Carbon_Offset" data-name="Carbon Offset" transform="translate(519.703 170.109) rotate(90)" font-size="59" font-family="Roboto-Bold, Roboto" font-weight="700"><tspan x="0" y="0">Carbon Offset</tspan></text>
      <path id="Path_116" data-name="Path 116" d="M190.717,0c4.309,14.618,21.349,69.73-6.474,97.3-5.476,5.436-3.953,3.084-4.7,7.294-1.008,5.673-5.792,7.156-9.2,7.472.563,17.119,4.6,35.463,6.276,52.661l5.99-6.345s-6.158-10.447-1.5-21.665c17.277-41.5,61.922-27.872,92.759-18.68-9.33,15.557-44.319,75.275-71.351,55.823L192.021,166.3c19.59-19.708,34.761-34.455,62-42.8-28.771-.623-63.77,40.227-76.421,51.86,3.015,34.109,4.487,67.891,5.051,101.931l11.8-12.483s-8.144-13.817-1.987-28.623c22.822-54.835,81.808-36.827,122.568-24.67-12.335,20.538-58.561,99.46-94.281,73.743L206.9,275.282c25.876-26.024,45.93-45.525,81.907-56.535-43.054-.929-96.673,68.455-105.974,72.369.316,32.893-.138,66.083-.81,100.063l11.4-10.24s-9.587-13.818-2.342-28.623c26.854-54.835,96.248-36.837,144.2-24.68-14.5,20.548-68.9,99.46-110.915,73.753l-16.318-9.983c30.452-26.034,54.044-45.525,96.376-56.545-48.193-.88-107.614,61.843-122.707,71.351L180.606,476.2H267.76s-27.6,27.289-21.784,46.5c9.647,31.924,107.585,60.973,33.407,106.141A337.243,337.243,0,0,1,232.9,652.1H119.593A336.62,336.62,0,0,1,73.11,628.844C-1.067,583.675,96.861,554.627,106.517,522.7c5.812-19.214-21.784-46.5-21.784-46.5h81.511c.188-15.626.366-28.979.445-32.349-18.453-11.821-81.541-71.4-132.926-70.54,46.305,11.011,72.122,30.511,105.44,56.535l-17.85,9.983C75.373,465.535,15.873,386.623,0,366.075c52.473-12.157,128.4-30.155,157.774,24.68,7.927,14.806-2.56,28.633-2.56,28.633l11.791,9.676c.722-33.19,1.453-65.737,1.66-97.642-9.894-4.883-63.029-73.2-105.756-72.28,35.977,11.02,56.041,30.521,81.916,56.535L130.96,325.67c-35.72,25.708-81.946-53.2-94.271-73.753,40.761-12.157,99.747-30.155,122.558,24.67,6.167,14.816-1.987,28.633-1.987,28.633l11.465,12.117c.059-35.591-.613-70.669-2.718-105.845-6.128-1.067-49.814-58.492-84.773-57.741,28.663,8.767,44.625,24.294,65.233,45.01l-11.04,7.956c-28.445,20.469-65.252-42.362-75.067-58.729,32.458-9.666,79.426-24.008,97.592,19.659,4.9,11.791-1.581,22.792-1.581,22.792l8.9,9.4c-1.848-26.824-4.576-53.738-8.48-81.017a8.475,8.475,0,0,1-8.164-4.645,34.977,34.977,0,0,1-3.776-12.483l-4.378-2.214C105.519,81.779,104.8,24.1,104.412,8.866,121.1,21.745,141.594,37.49,157.033,54.233,166.521,35.2,179.766,15.953,190.717,0ZM173.242,75.848c.731-15.191,3.143-30.906,9.38-51.079C176.889,36.184,166.689,64.056,173.242,75.848ZM146.5,81.679c3.44-14.262-17.079-41.877-26.785-51.732C133.559,49.656,140.873,65.371,146.5,81.679Z" transform="translate(696.418 300.008)" fill="#3a6e6a" fill-rule="evenodd"/>
      <path id="Path_116-2" data-name="Path 116" d="M258.173,375.95s-27.6,27.289-21.784,46.5c9.647,31.924,107.585,60.973,33.407,106.141a337.243,337.243,0,0,1-46.483,23.256H110.006a336.62,336.62,0,0,1-46.483-23.256c-74.177-45.169,23.751-74.217,33.407-106.141,5.812-19.214-21.784-46.5-21.784-46.5Z" transform="translate(706.005 400.257)" fill="#504836" fill-rule="evenodd"/>
    </g>
  </g>
</svg>
