<svg xmlns="http://www.w3.org/2000/svg" xmlns:xlink="http://www.w3.org/1999/xlink" width="1000" height="1019" viewBox="0 0 1000 1019">
  <defs>
    <clipPath id="clip-Web_1920_11">
      <rect width="1000" height="1019"/>
    </clipPath>
  </defs>
  <g id="Web_1920_11" data-name="Web 1920 – 11" clip-path="url(#clip-Web_1920_11)">
    <rect width="1000" height="1019" fill="#fff"/>
    <path id="chuttersnap-gts_Eh4g1lk-unsplashbw" d="M0,0H400.835V787.379H0Z" transform="translate(20 109.988)" fill="#fff"/>
    <path id="chuttersnap-gts_Eh4g1lk-unsplashbw-2" data-name="chuttersnap-gts_Eh4g1lk-unsplashbw" d="M0,0H425.322V787.379H0Z" transform="translate(87 109.988)" fill="#b5b5b5" opacity="0.177"/>
    <text id="CYCLING" transform="translate(43.703 48.109) rotate(90)" font-size="59" font-family="Roboto-Bold, Roboto" font-weight="700"><tspan x="0" y="0">CYCLING</tspan></text>
    <path id="Path_49" data-name="Path 49" d="M39.188,84.322a6.143,6.143,0,1,0,0-12.287H22.624a6.143,6.143,0,1,0,0,12.287Z" transform="translate(53.314 670.613)" fill="#bababa"/>
    <path id="Path_50" data-name="Path 50" d="M29.046,84.322H45.61a6.143,6.143,0,1,0,0-12.287H29.046a6.143,6.143,0,1,0,0,12.287Z" transform="translate(86.344 670.613)" fill="#bababa"/>
    <path id="Path_51" data-name="Path 51" d="M35.469,84.322H52.033a6.143,6.143,0,1,0,0-12.287H35.469a6.143,6.143,0,1,0,0,12.287Z" transform="translate(119.379 670.613)" fill="#bababa"/>
    <path id="Path_52" data-name="Path 52" d="M22.624,77.656H39.188a6.143,6.143,0,0,0,0-12.287H22.624a6.143,6.143,0,0,0,0,12.287Z" transform="translate(53.314 636.329)" fill="#bababa"/>
    <path id="Path_53" data-name="Path 53" d="M29.046,77.656H45.61a6.143,6.143,0,0,0,0-12.287H29.046a6.143,6.143,0,0,0,0,12.287Z" transform="translate(86.344 636.329)" fill="#bababa"/>
    <path id="Path_54" data-name="Path 54" d="M35.469,77.656H52.033a6.143,6.143,0,0,0,0-12.287H35.469a6.143,6.143,0,0,0,0,12.287Z" transform="translate(119.379 636.329)" fill="#bababa"/>
    <path id="Path_55" data-name="Path 55" d="M22.624,70.991H39.188a6.143,6.143,0,0,0,0-12.287H22.624a6.143,6.143,0,0,0,0,12.287Z" transform="translate(53.314 602.046)" fill="#bababa"/>
    <path id="Path_56" data-name="Path 56" d="M29.046,70.991H45.61a6.143,6.143,0,0,0,0-12.287H29.046a6.143,6.143,0,0,0,0,12.287Z" transform="translate(86.344 602.046)" fill="#bababa"/>
    <path id="Path_57" data-name="Path 57" d="M35.469,70.991H52.033a6.143,6.143,0,0,0,0-12.287H35.469a6.143,6.143,0,0,0,0,12.287Z" transform="translate(119.379 602.046)" fill="#bababa"/>
    <path id="Path_58" data-name="Path 58" d="M22.624,64.325H39.188a6.143,6.143,0,1,0,0-12.287H22.624a6.143,6.143,0,1,0,0,12.287Z" transform="translate(53.314 567.763)" fill="#bababa"/>
    <path id="Path_59" data-name="Path 59" d="M29.046,64.325H45.61a6.143,6.143,0,1,0,0-12.287H29.046a6.143,6.143,0,1,0,0,12.287Z" transform="translate(86.344 567.763)" fill="#bababa"/>
    <path id="Path_60" data-name="Path 60" d="M35.469,64.325H52.033a6.143,6.143,0,1,0,0-12.287H35.469a6.143,6.143,0,1,0,0,12.287Z" transform="translate(119.379 567.763)" fill="#bababa"/>
    <path id="Path_61" data-name="Path 61" d="M22.624,57.66H39.188a6.143,6.143,0,0,0,0-12.287H22.624a6.143,6.143,0,0,0,0,12.287Z" transform="translate(53.314 533.48)" fill="#bababa"/>
    <path id="Path_62" data-name="Path 62" d="M29.046,57.66H45.61a6.143,6.143,0,0,0,0-12.287H29.046a6.143,6.143,0,0,0,0,12.287Z" transform="translate(86.344 533.48)" fill="#bababa"/>
    <path id="Path_63" data-name="Path 63" d="M35.469,57.66H52.033a6.143,6.143,0,0,0,0-12.287H35.469a6.143,6.143,0,0,0,0,12.287Z" transform="translate(119.379 533.48)" fill="#bababa"/>
    <path id="Path_64" data-name="Path 64" d="M22.624,50.994H39.188a6.143,6.143,0,1,0,0-12.287H22.624a6.143,6.143,0,1,0,0,12.287Z" transform="translate(53.314 499.196)" fill="#bababa"/>
    <path id="Path_65" data-name="Path 65" d="M29.046,50.994H45.61a6.143,6.143,0,1,0,0-12.287H29.046a6.143,6.143,0,1,0,0,12.287Z" transform="translate(86.344 499.196)" fill="#bababa"/>
    <path id="Path_66" data-name="Path 66" d="M35.469,50.994H52.033a6.143,6.143,0,1,0,0-12.287H35.469a6.143,6.143,0,0,0,0,12.287Z" transform="translate(119.379 499.196)" fill="#bababa"/>
    <path id="Path_67" data-name="Path 67" d="M22.624,44.329H39.188a6.143,6.143,0,1,0,0-12.287H22.624a6.143,6.143,0,1,0,0,12.287Z" transform="translate(53.314 464.913)" fill="#bababa"/>
    <path id="Path_68" data-name="Path 68" d="M29.046,44.329H45.61a6.143,6.143,0,1,0,0-12.287H29.046a6.143,6.143,0,1,0,0,12.287Z" transform="translate(86.344 464.913)" fill="#bababa"/>
    <path id="Path_69" data-name="Path 69" d="M35.469,44.329H52.033a6.143,6.143,0,1,0,0-12.287H35.469a6.143,6.143,0,0,0,0,12.287Z" transform="translate(119.379 464.913)" fill="#bababa"/>
    <path id="Path_70" data-name="Path 70" d="M22.624,37.663H39.188a6.143,6.143,0,1,0,0-12.287H22.624a6.143,6.143,0,1,0,0,12.287Z" transform="translate(53.314 430.63)" fill="#bababa"/>
    <path id="Path_71" data-name="Path 71" d="M29.046,37.663H45.61a6.143,6.143,0,1,0,0-12.287H29.046a6.143,6.143,0,1,0,0,12.287Z" transform="translate(86.344 430.63)" fill="#bababa"/>
    <path id="Path_72" data-name="Path 72" d="M35.469,37.663H52.033a6.143,6.143,0,1,0,0-12.287H35.469a6.143,6.143,0,0,0,0,12.287Z" transform="translate(119.379 430.63)" fill="#bababa"/>
    <path id="Path_73" data-name="Path 73" d="M65.2,78.7h-18.3a6.143,6.143,0,1,0,0,12.287H65.2a6.143,6.143,0,1,0,0-12.287Z" transform="translate(178.136 704.896)" fill="#bababa"/>
    <path id="Path_74" data-name="Path 74" d="M53.989,90.987h18.3a6.143,6.143,0,1,0,0-12.287h-18.3a6.143,6.143,0,1,0,0,12.287Z" transform="translate(214.637 704.896)" fill="#bababa"/>
    <path id="Path_75" data-name="Path 75" d="M46.892,84.322H65.2a6.143,6.143,0,1,0,0-12.287h-18.3a6.143,6.143,0,1,0,0,12.287Z" transform="translate(178.136 670.613)" fill="#bababa"/>
    <path id="Path_76" data-name="Path 76" d="M53.989,84.322h18.3a6.143,6.143,0,1,0,0-12.287h-18.3a6.143,6.143,0,1,0,0,12.287Z" transform="translate(214.637 670.613)" fill="#bababa"/>
    <path id="Path_77" data-name="Path 77" d="M46.892,77.656H65.2a6.143,6.143,0,0,0,0-12.287h-18.3a6.143,6.143,0,0,0,0,12.287Z" transform="translate(178.136 636.329)" fill="#bababa"/>
    <path id="Path_78" data-name="Path 78" d="M53.989,77.656h18.3a6.143,6.143,0,0,0,0-12.287h-18.3a6.143,6.143,0,0,0,0,12.287Z" transform="translate(214.637 636.329)" fill="#bababa"/>
    <path id="Path_79" data-name="Path 79" d="M46.892,70.991H65.2a6.143,6.143,0,0,0,0-12.287h-18.3a6.143,6.143,0,0,0,0,12.287Z" transform="translate(178.136 602.046)" fill="#bababa"/>
    <path id="Path_80" data-name="Path 80" d="M53.989,70.991h18.3a6.143,6.143,0,0,0,0-12.287h-18.3a6.143,6.143,0,0,0,0,12.287Z" transform="translate(214.637 602.046)" fill="#bababa"/>
    <path id="Path_81" data-name="Path 81" d="M46.892,64.325H65.2a6.143,6.143,0,1,0,0-12.287h-18.3a6.143,6.143,0,1,0,0,12.287Z" transform="translate(178.136 567.763)" fill="#bababa"/>
    <path id="Path_82" data-name="Path 82" d="M53.989,64.325h18.3a6.143,6.143,0,1,0,0-12.287h-18.3a6.143,6.143,0,1,0,0,12.287Z" transform="translate(214.637 567.763)" fill="#bababa"/>
    <path id="Path_83" data-name="Path 83" d="M46.892,57.66H65.2a6.143,6.143,0,0,0,0-12.287h-18.3a6.143,6.143,0,0,0,0,12.287Z" transform="translate(178.136 533.48)" fill="#bababa"/>
    <path id="Path_84" data-name="Path 84" d="M53.989,57.66h18.3a6.143,6.143,0,0,0,0-12.287h-18.3a6.143,6.143,0,0,0,0,12.287Z" transform="translate(214.637 533.48)" fill="#bababa"/>
    <path id="Path_85" data-name="Path 85" d="M46.892,50.994H65.2a6.143,6.143,0,1,0,0-12.287h-18.3a6.143,6.143,0,0,0,0,12.287Z" transform="translate(178.136 499.196)" fill="#bababa"/>
    <path id="Path_86" data-name="Path 86" d="M53.989,50.994h18.3a6.143,6.143,0,1,0,0-12.287h-18.3a6.143,6.143,0,1,0,0,12.287Z" transform="translate(214.637 499.196)" fill="#bababa"/>
    <path id="Path_87" data-name="Path 87" d="M46.892,44.329H65.2a6.143,6.143,0,1,0,0-12.287h-18.3a6.143,6.143,0,0,0,0,12.287Z" transform="translate(178.136 464.913)" fill="#bababa"/>
    <path id="Path_88" data-name="Path 88" d="M53.989,44.329h18.3a6.143,6.143,0,1,0,0-12.287h-18.3a6.143,6.143,0,1,0,0,12.287Z" transform="translate(214.637 464.913)" fill="#bababa"/>
    <path id="Path_89" data-name="Path 89" d="M16.143,501.469H495.326a6.143,6.143,0,0,0,0-12.287h-6.617V134.313a6.142,6.142,0,0,0-6.143-6.143H479.6V85.706a6.142,6.142,0,0,0-6.143-6.143h-2.874V70.51c0-33.366-27.831-60.51-62.046-60.51s-62.046,27.144-62.046,60.51v9.053h-2.88a6.142,6.142,0,0,0-6.143,6.143V128.17h-2.958a6.142,6.142,0,0,0-6.143,6.143V489.182H300.742V110.607a6.142,6.142,0,0,0-6.143-6.143H183.046V59.78a6.142,6.142,0,0,0-6.143-6.143H30.482a6.142,6.142,0,0,0-6.143,6.143v429.4h-8.2a6.143,6.143,0,0,0,0,12.287Zm112.578-12.287H78.663V435.494h50.059ZM340.656,140.457H365.5v38.216H340.656Zm37.13,0H402.4v38.216H377.786Zm36.9,0h24.6v38.216h-24.6Zm36.89,0h24.849v38.216H451.572ZM358.78,70.51c0-26.589,22.324-48.223,49.759-48.223S458.3,43.92,458.3,70.51v9.053H358.78Zm-9.023,21.34H467.315v36.32H349.757Zm-9.1,99.11H476.422V489.182H340.656Zm-52.2-74.209V489.182H183.046V116.75ZM36.625,65.923H170.759V489.182H141.008V429.351a6.142,6.142,0,0,0-6.143-6.143H72.52a6.142,6.142,0,0,0-6.143,6.143v59.832H36.625Z" transform="translate(19.982 351.543)" fill="#bababa"/>
    <path id="Path_90" data-name="Path 90" d="M74.012,43.526a6.142,6.142,0,0,0-6.143,6.143V67.841a6.143,6.143,0,0,0,12.287,0V49.669A6.142,6.142,0,0,0,74.012,43.526Z" transform="translate(317.619 523.979)" fill="#bababa"/>
    <path id="Path_91" data-name="Path 91" d="M80.016,43.526a6.142,6.142,0,0,0-6.143,6.143V67.841a6.143,6.143,0,0,0,12.287,0V49.669A6.142,6.142,0,0,0,80.016,43.526Z" transform="translate(348.505 523.979)" fill="#bababa"/>
    <path id="Path_92" data-name="Path 92" d="M86.021,43.526a6.142,6.142,0,0,0-6.143,6.143V67.841a6.143,6.143,0,0,0,12.287,0V49.669A6.142,6.142,0,0,0,86.021,43.526Z" transform="translate(379.39 523.979)" fill="#bababa"/>
    <path id="Path_93" data-name="Path 93" d="M74.012,51.922a6.142,6.142,0,0,0-6.143,6.143V76.235a6.143,6.143,0,1,0,12.287,0V58.066A6.142,6.142,0,0,0,74.012,51.922Z" transform="translate(317.619 567.165)" fill="#bababa"/>
    <path id="Path_94" data-name="Path 94" d="M80.016,51.922a6.142,6.142,0,0,0-6.143,6.143V76.235a6.143,6.143,0,1,0,12.287,0V58.066A6.142,6.142,0,0,0,80.016,51.922Z" transform="translate(348.505 567.165)" fill="#bababa"/>
    <path id="Path_95" data-name="Path 95" d="M86.021,51.922a6.142,6.142,0,0,0-6.143,6.143V76.235a6.143,6.143,0,0,0,12.287,0V58.066A6.142,6.142,0,0,0,86.021,51.922Z" transform="translate(379.39 567.165)" fill="#bababa"/>
    <path id="Path_96" data-name="Path 96" d="M74.012,60.318a6.142,6.142,0,0,0-6.143,6.143V84.631a6.143,6.143,0,1,0,12.287,0V66.462A6.142,6.142,0,0,0,74.012,60.318Z" transform="translate(317.619 610.349)" fill="#bababa"/>
    <path id="Path_97" data-name="Path 97" d="M80.016,60.318a6.142,6.142,0,0,0-6.143,6.143V84.631a6.143,6.143,0,1,0,12.287,0V66.462A6.142,6.142,0,0,0,80.016,60.318Z" transform="translate(348.505 610.349)" fill="#bababa"/>
    <path id="Path_98" data-name="Path 98" d="M86.021,60.318a6.142,6.142,0,0,0-6.143,6.143V84.631a6.143,6.143,0,0,0,12.287,0V66.462A6.142,6.142,0,0,0,86.021,60.318Z" transform="translate(379.39 610.349)" fill="#bababa"/>
    <path id="Path_99" data-name="Path 99" d="M74.012,69.152A6.142,6.142,0,0,0,67.868,75.3V93.465a6.143,6.143,0,1,0,12.287,0V75.3A6.142,6.142,0,0,0,74.012,69.152Z" transform="translate(317.619 655.785)" fill="#bababa"/>
    <path id="Path_100" data-name="Path 100" d="M80.016,69.152A6.142,6.142,0,0,0,73.873,75.3V93.465a6.143,6.143,0,1,0,12.287,0V75.3A6.142,6.142,0,0,0,80.016,69.152Z" transform="translate(348.505 655.785)" fill="#bababa"/>
    <path id="Path_101" data-name="Path 101" d="M86.021,69.152A6.142,6.142,0,0,0,79.878,75.3V93.465a6.143,6.143,0,0,0,12.287,0V75.3A6.142,6.142,0,0,0,86.021,69.152Z" transform="translate(379.39 655.785)" fill="#bababa"/>
    <path id="Path_102" data-name="Path 102" d="M74.012,77.986a6.142,6.142,0,0,0-6.143,6.143V102.3a6.143,6.143,0,0,0,12.287,0V84.13A6.142,6.142,0,0,0,74.012,77.986Z" transform="translate(317.619 701.222)" fill="#bababa"/>
    <path id="Path_103" data-name="Path 103" d="M80.016,77.986a6.142,6.142,0,0,0-6.143,6.143V102.3a6.143,6.143,0,0,0,12.287,0V84.13A6.142,6.142,0,0,0,80.016,77.986Z" transform="translate(348.505 701.222)" fill="#bababa"/>
    <path id="Path_104" data-name="Path 104" d="M86.021,77.986a6.142,6.142,0,0,0-6.143,6.143V102.3a6.143,6.143,0,0,0,12.287,0V84.13A6.142,6.142,0,0,0,86.021,77.986Z" transform="translate(379.39 701.222)" fill="#bababa"/>
    <path id="Path_46" data-name="Path 46" d="M91.81,321.759c45.787,0,83.179-34.34,89.284-77.837l38.155,2.289,21.367,42.734-6.1,3.052c-3.816,1.526-5.342,6.1-3.816,9.92s6.1,5.342,9.92,3.816l29-14.5c3.816-1.526,5.342-6.1,3.816-9.92s-6.1-5.342-9.92-3.816l-9.157,4.579-20.6-41.971L353.556,121.061c1.526,9.157,3.052,19.078,5.342,29a90.659,90.659,0,0,0-49.6,80.89c0,49.6,40.445,90.81,90.81,90.81s89.284-40.445,89.284-90.047-40.445-90.81-90.81-90.81a96.916,96.916,0,0,0-25.946,3.816C361.95,90.537,365,79.854,364.24,75.275a31.328,31.328,0,0,0,26.709-31.287A30.946,30.946,0,0,0,359.661,12.7H331.426a7.21,7.21,0,0,0-7.631,7.631,7.21,7.21,0,0,0,7.631,7.631h28.235a15.648,15.648,0,0,1,16.025,16.025c0,9.157-6.868,16.788-16.025,16.788-.763,0-10.684-1.526-10.684,7.631.763,20.6-.763,15.262.763,31.287H207.8V81.38c15.262-3.052,32.814-8.394,32.814-18.315,0-18.315-54.944-21.367-55.707-21.367-13.736,0-25.183,9.157-25.183,21.367,0,11.447,11.447,21.367,25.183,21.367a51.391,51.391,0,0,0,7.631-.763v21.367l-48.076,54.181a87.949,87.949,0,0,0-53.418-17.552C41.445,140.9,1,181.347,1,231.712S41.445,321.759,91.81,321.759ZM398.58,156.164a75.548,75.548,0,1,1-75.548,75.548c0-28.235,15.262-51.891,38.155-65.627,3.816,16.025,8.394,32.051,14.5,45.023a31.008,31.008,0,0,0-7.631,20.6A31.427,31.427,0,0,0,399.343,263a31.287,31.287,0,1,0,0-62.575,26.932,26.932,0,0,0-10.684,2.289c-4.579-11.447-9.157-26.709-12.973-42.734A79.923,79.923,0,0,1,398.58,156.164Zm-14.5,70.206a51.359,51.359,0,0,0,10.684,11.447,12.893,12.893,0,0,0,3.816,1.526c2.289,0,4.579-1.526,6.1-3.816,2.289-3.816,1.526-8.394-2.289-10.684-3.052-1.526-5.342-4.579-7.631-9.157,1.526,0,2.289-.763,3.816-.763a16.025,16.025,0,1,1,0,32.051,15.648,15.648,0,0,1-16.025-16.025C383.318,229.423,383.318,227.9,384.081,226.37ZM175.752,62.3c0-3.052,3.816-6.1,9.92-6.1,6.868,0,23.656,3.052,34.34,6.1-9.92,3.052-26.709,6.1-34.34,6.1C179.567,68.407,175.752,65.355,175.752,62.3ZM121.571,225.607a25.843,25.843,0,0,0-4.579-11.447l29.761-33.577c11.447,12.973,19.078,29,19.841,48.076ZM91.047,239.343l13.736.763c-3.052,4.579-7.631,7.631-12.973,7.631a16.119,16.119,0,0,1-16.025-16.025A15.6,15.6,0,0,1,94.862,216.45l-9.157,10.684C81.89,230.949,84.942,238.58,91.047,239.343ZM195.593,124.114l19.078,106.835-32.814-2.289a90.221,90.221,0,0,0-25.183-60.286Zm33.577,99.2L209.329,114.957H338.294ZM91.81,156.164a77.462,77.462,0,0,1,43.5,13.736l-29.761,33.577c-4.579-2.289-9.157-3.816-13.736-3.816a31.427,31.427,0,0,0-31.287,31.287A30.946,30.946,0,0,0,91.81,262.237c13.736,0,25.183-9.157,29.761-21.367l45.023,2.289c-5.342,35.866-36.629,63.338-74.022,63.338a75.72,75.72,0,0,1-75.548-75.548C17.025,188.978,49.839,156.164,91.81,156.164Z" transform="translate(123.452 538.541)" fill="#4eb4ac"/>
  </g>
</svg>
