<svg xmlns="http://www.w3.org/2000/svg" xmlns:xlink="http://www.w3.org/1999/xlink" width="1000" height="1019" viewBox="0 0 1000 1019">
  <defs>
    <clipPath id="clip-Web_1920_14">
      <rect width="1000" height="1019"/>
    </clipPath>
  </defs>
  <g id="Web_1920_14" data-name="Web 1920 – 14" clip-path="url(#clip-Web_1920_14)">
    <rect width="1000" height="1019" fill="#fff"/>
    <path id="chuttersnap-gts_Eh4g1lk-unsplashbw" d="M0,0H400.835V787.379H0Z" transform="translate(20 109.988)" fill="#fff"/>
    <path id="chuttersnap-gts_Eh4g1lk-unsplashbw-2" data-name="chuttersnap-gts_Eh4g1lk-unsplashbw" d="M0,0H425.322V787.379H0Z" transform="translate(87 109.988)" fill="#b5b5b5" opacity="0.177"/>
    <path id="Path_122" data-name="Path 122" d="M40.66,63.216c-3.7,6.333-21.416,19.9-21.441,23.693s4.267,12.931,4.7,15.1.648,15,7.953,12.058,4.5-5.306,5.959-1.87,4.941,18.686,9.316,18.1c9.137-.652,7.093-8.651,8.871-11.348s5.851-6.387,1.916-20c.432-3.287,3.158-11.352,4.82-13.118,0,0,8.772-3.283,9.27-1.583s-1.866,6.96-2.468,13.313-3.22,17.282.486,18.067,11.751-2.327,16.1-20.938c2.767-10.2,4.463-14.09,9.7-15.786a38.433,38.433,0,0,0,7.446-1.055L70.715,45.282c-.166.05-.4.12-.519.154C65.974,46.745,44.346,56.883,40.66,63.216Z" transform="translate(196.042 532.357)" fill="#c39250"/>
    <path id="Path_123" data-name="Path 123" d="M143.895,101.053c11.938,1.72,64.1-6.84,64.772-6.544a11.938,11.938,0,0,0,.407-2.693l-26.124-64.1C162.772,30.2,94.157,54.73,51.761,70.819l40.214,40.214a43.722,43.722,0,0,1,5.2-6.333C99.841,102.553,131.965,99.336,143.895,101.053Z" transform="translate(297.72 476.936)" fill="#c39250"/>
    <text id="Zero-waste_Products" data-name="Zero-waste Products" transform="translate(43.703 48.109) rotate(90)" font-size="59" font-family="Roboto-Bold, Roboto" font-weight="700"><tspan x="0" y="0">Zero-waste Products</tspan></text>
    <path id="Path_118" data-name="Path 118" d="M57.432,66.62c-8.651,7.816-19.567,23.73-14.788,29.116,5.356,8.273,14.1-2.136,22.8-6.615s10.209-1.512,14.535-5.414a19.561,19.561,0,0,0,2.838-3.1L62.4,60.184A19.076,19.076,0,0,1,57.432,66.62Z" transform="translate(265.277 579.376)" fill="#0a3458"/>
    <path id="Path_120" data-name="Path 120" d="M237.442,0C106.307,0,0,106.307,0,237.442S106.307,474.884,237.442,474.884,474.884,368.577,474.884,237.442,368.572,0,237.442,0Zm0,425.416c-103.806,0-187.974-84.152-187.974-187.974A187.1,187.1,0,0,1,86.4,125.567L349.317,388.5A187.147,187.147,0,0,1,237.442,425.416Zm151.047-76.1L125.567,86.391A187.089,187.089,0,0,1,237.442,49.464c103.814,0,187.974,84.168,187.974,187.974A187.071,187.071,0,0,1,388.488,349.313Z" transform="translate(134.402 389.482)" fill="#985252"/>
    <path id="Path_121" data-name="Path 121" d="M94.449,88.1,77.617,72.621,58.773,87.434l-18.179-1.35L28.477,123.107,62.138,153.07l10.77-20.535,22.555,11.78,27.258-37.7-13.463-22.55Z" transform="translate(224.254 618.618)" fill="#0a3458"/>
  </g>
</svg>
