<svg xmlns="http://www.w3.org/2000/svg" xmlns:xlink="http://www.w3.org/1999/xlink" width="1920" height="6591" viewBox="0 0 1920 6591">
  <defs>
    <linearGradient id="linear-gradient" x1="0.5" x2="0.5" y2="0.973" gradientUnits="objectBoundingBox">
      <stop offset="0" stop-color="#fbfff7"/>
      <stop offset="0.527" stop-color="#f4efef"/>
      <stop offset="1" stop-color="#eff0ed"/>
    </linearGradient>
    <linearGradient id="linear-gradient-2" x1="0.5" x2="0.5" y2="1" gradientUnits="objectBoundingBox">
      <stop offset="0" stop-color="#f7edce"/>
      <stop offset="1" stop-color="#807676"/>
    </linearGradient>
    <clipPath id="clip-Working_P1">
      <rect width="1920" height="6591"/>
    </clipPath>
  </defs>
  <g id="Working_P1" data-name="Working P1" clip-path="url(#clip-Working_P1)">
    <rect width="1920" height="6591" fill="#fff"/>
    <rect id="Rectangle_50" data-name="Rectangle 50" width="1000" height="1076" transform="translate(460)" fill="#fff"/>
    <rect id="Rectangle_49" data-name="Rectangle 49" width="1000" height="6518" transform="translate(460)" opacity="0.756" fill="url(#linear-gradient)"/>
    <path id="Path_23" data-name="Path 23" d="M500.166,301.525,0,0H1000.332Z" transform="translate(460 -0.221)" opacity="0.206" fill="url(#linear-gradient-2)"/>
    <path id="chuttersnap-gts_Eh4g1lk-unsplashbw" d="M0,0H400.835V758.817H0Z" transform="translate(510 1263.988)" fill="#fff"/>
    <g id="noun_drive_776623" transform="translate(569.61 1464.594)">
      <path id="Path_21" data-name="Path 21" d="M45.382,230.98h16.77q-2.516,3.354-4.863,6.876a141.037,141.037,0,0,0-23.227,81.419V480.1a33.54,33.54,0,0,0,33.54,33.54h43.518a33.54,33.54,0,0,0,33.54-33.54V454.945H523V480.1a33.54,33.54,0,0,0,33.54,33.54h43.518a33.54,33.54,0,0,0,33.54-33.54V319.359a141.038,141.038,0,0,0-23.227-81.419q-2.348-3.438-4.863-6.876h16.77a34.63,34.63,0,0,0,33.54-33.54c0-9.224,0-16.77,0-23.9a33.54,33.54,0,0,0-32.7-32.869H610.7a56.684,56.684,0,0,0-37.565,16.77c-16.015-39.829-36.223-85.108-48.8-103.3a112.947,112.947,0,0,0-77.73-45.2A649.835,649.835,0,0,0,333.66,1.146h0A649.856,649.856,0,0,0,220.8,8.441a112.947,112.947,0,0,0-77.73,45.2c-12.661,18.2-32.786,63.391-48.8,103.3A56.683,56.683,0,0,0,56.7,140.17H44.292a33.54,33.54,0,0,0-32.7,32.869v23.9A34.63,34.63,0,0,0,45.382,230.98Zm407.85,54L514.778,268.8a26.161,26.161,0,0,1,32.786,25.155v16.183A26.161,26.161,0,0,1,521.4,336.548H459.436a26.161,26.161,0,0,1-6.624-51.484Zm-333.474,9.14a26.161,26.161,0,0,1,32.786-25.155l61.546,16.183a26.161,26.161,0,0,1-6.2,51.4H145.919a26.161,26.161,0,0,1-26.161-26.161Z" transform="translate(-11.59 -0.98)" fill="#617c7b"/>
    </g>
    <path id="chuttersnap-gts_Eh4g1lk-unsplashbw-2" data-name="chuttersnap-gts_Eh4g1lk-unsplashbw" d="M0,0H425.322V758.817H0Z" transform="translate(577 1263.988)" fill="#b5b5b5" opacity="0.177"/>
    <text id="TRANSPORT" transform="translate(533.703 1202.109) rotate(90)" fill="#1a1a1a" font-size="59" font-family="Roboto-Bold, Roboto" font-weight="700"><tspan x="0" y="0">TRANSPORT</tspan></text>
    <path id="chuttersnap-gts_Eh4g1lk-unsplashbw-3" data-name="chuttersnap-gts_Eh4g1lk-unsplashbw" d="M0,0H510.782V618.152H0Z" transform="translate(960 1202.109)" fill="#fff"/>
    <text id="What_can_be_done_to_reduce_your_carbon_footprint_" data-name="What can be done to reduce your carbon footprint?
" transform="translate(520 329.918)" fill="#4b4b4b" font-size="60" font-family="Roboto-Black, Roboto" font-weight="800"><tspan x="64.68" y="56">What can be done to reduce </tspan><tspan x="136.941" y="136">your carbon footprint?</tspan><tspan x="439.724" y="216"></tspan></text>
    <text id="Take_one_minute_to_answer_the_questions." data-name="Take one minute to answer the questions." transform="translate(520 509.736)" fill="#4b4b4b" font-size="40" font-family="Roboto-Bold, Roboto" font-weight="700"><tspan x="65.398" y="37">Take one minute to answer the questions.</tspan></text>
    <rect id="Rectangle_12" data-name="Rectangle 12" width="135.462" height="59.792" transform="translate(892.104 5800.716)" fill="#c9c9c9"/>
    <text id="Submit" transform="translate(905.643 5810.554)" font-size="30" font-family="Roboto-Medium, Roboto" font-weight="500"><tspan x="6.489" y="28">Submit</tspan></text>
    <rect id="Rectangle_39" data-name="Rectangle 39" width="422.362" height="21" rx="3" transform="translate(986.258 1465.043)" fill="#dbdbdb"/>
    <rect id="Rectangle_40" data-name="Rectangle 40" width="422.362" height="21" rx="3" transform="translate(986.258 1514.043)" fill="#dbdbdb"/>
    <text id="Do_you_own_a_car_" data-name="Do you own a car?
" transform="translate(977.835 1254)" fill="#1a1a1a" font-size="60" font-family="Roboto-Bold, Roboto" font-weight="700"><tspan x="0" y="56">Do you own </tspan><tspan x="0" y="126">a car?</tspan></text>
    <text id="Yes" transform="translate(1011.835 1451.151)" fill="#1a1a1a" font-size="30" font-family="Roboto-Medium, Roboto" font-weight="500"><tspan x="0" y="28">Yes</tspan></text>
    <text id="No" transform="translate(1011.835 1501.167)" fill="#1a1a1a" font-size="30" font-family="Roboto-Medium, Roboto" font-weight="500"><tspan x="0" y="28">No</tspan></text>
    <path id="chuttersnap-gts_Eh4g1lk-unsplashbw-4" data-name="chuttersnap-gts_Eh4g1lk-unsplashbw" d="M0,0H400.835V840.05H0Z" transform="translate(510 2359.988)" fill="#fff"/>
    <path id="chuttersnap-gts_Eh4g1lk-unsplashbw-5" data-name="chuttersnap-gts_Eh4g1lk-unsplashbw" d="M0,0H425.322V840.05H0Z" transform="translate(577 2359.988)" fill="#b5b5b5" opacity="0.177"/>
    <text id="TRANSPORT-2" data-name="TRANSPORT" transform="translate(533.703 2298.109) rotate(90)" font-size="59" font-family="Roboto-Bold, Roboto" font-weight="700"><tspan x="0" y="0">TRANSPORT</tspan></text>
    <path id="Path_24" data-name="Path 24" d="M493.559,489.195a18.565,18.565,0,0,1-15.116,7.787H21.046A18.536,18.536,0,0,1,3.52,472.366L52.969,329.7A18.589,18.589,0,0,1,70.5,317.227H98.311c2.264,2.878,4.237,5.819,6.642,8.667l24.974,28.42H83.7L47.1,459.9H452.391l-36.6-105.586H364.9l6.418-7.615c7.537-9.015,15.605-19.051,23.59-29.466H429A18.589,18.589,0,0,1,446.53,329.7l49.449,142.668A18.6,18.6,0,0,1,493.559,489.195Z" transform="translate(561.367 2632.094)" fill="#b92e2e"/>
    <path id="chuttersnap-gts_Eh4g1lk-unsplashbw-6" data-name="chuttersnap-gts_Eh4g1lk-unsplashbw" d="M0,0H510.782V732.385H0Z" transform="translate(960 2298.109)" fill="#fff"/>
    <path id="Path_30" data-name="Path 30" d="M416.892,151.5C406.169,57.5,316.058-10.9,223.245,4.731,123.665,21.5,60.329,119.327,88.234,219.9c8.526,30.648,24.308,57.517,44.572,81.513L233.093,415.526c9.13,9.89,23.522,9.718,32.2-.578L342.864,322.9c18.088-21.622,35.671-43.619,49.839-68.224C411.265,222.457,421.129,188.634,416.892,151.5ZM249.744,277.017A105.079,105.079,0,1,1,354.821,171.936,105.076,105.076,0,0,1,249.744,277.017Z" transform="translate(561.367 2632.094)" fill="#b92e2e"/>
    <text id="What_do_you_mainly_use_your_car_for_" data-name="What do you mainly use your car for?" transform="translate(977.835 2348)" font-size="60" font-family="Roboto-Bold, Roboto" font-weight="700"><tspan x="0" y="56">What do </tspan><tspan x="0" y="126">you mainly </tspan><tspan x="0" y="196">use your </tspan><tspan x="0" y="266">car for?</tspan></text>
    <g id="Group_94" data-name="Group 94" transform="translate(0 134)">
      <rect id="Rectangle_46" data-name="Rectangle 46" width="419.751" height="21" rx="3" transform="translate(986.258 2559.043)" fill="#dbdbdb"/>
      <rect id="Rectangle_47" data-name="Rectangle 47" width="419.751" height="21" rx="3" transform="translate(986.258 2608.043)" fill="#dbdbdb"/>
      <rect id="Rectangle_48" data-name="Rectangle 48" width="419.751" height="21" rx="3" transform="translate(986.258 2657.043)" fill="#dbdbdb"/>
      <rect id="Rectangle_44" data-name="Rectangle 44" width="419.751" height="21" rx="3" transform="translate(986.258 2706.043)" fill="#dbdbdb"/>
      <text id="Commute" transform="translate(1011.835 2550.151)" font-size="30" font-family="Roboto-Medium, Roboto" font-weight="500"><tspan x="0" y="28">Commute</tspan></text>
      <text id="Leisure" transform="translate(1011.835 2600.167)" font-size="30" font-family="Roboto-Medium, Roboto" font-weight="500"><tspan x="0" y="28">Leisure</tspan></text>
      <text id="Both" transform="translate(1011.835 2649.167)" font-size="30" font-family="Roboto-Medium, Roboto" font-weight="500"><tspan x="0" y="28">Both</tspan></text>
      <text id="I_don_t_use_it" data-name="I don’t use it" transform="translate(1011.835 2698.167)" font-size="30" font-family="Roboto-Medium, Roboto" font-weight="500"><tspan x="0" y="28">I don’t use it</tspan></text>
    </g>
    <path id="chuttersnap-gts_Eh4g1lk-unsplashbw-7" data-name="chuttersnap-gts_Eh4g1lk-unsplashbw" d="M0,0H400.835V878.607H0Z" transform="translate(510 3456.988)" fill="#fff"/>
    <path id="chuttersnap-gts_Eh4g1lk-unsplashbw-8" data-name="chuttersnap-gts_Eh4g1lk-unsplashbw" d="M0,0H425.322V878.607H0Z" transform="translate(577 3456.988)" fill="#b5b5b5" opacity="0.177"/>
    <g id="noun_Time_2511578" transform="translate(542.078 3578.635)">
      <g id="Group_60" data-name="Group 60" transform="translate(13.633 4)">
        <path id="Path_31" data-name="Path 31" d="M50.436,23.787A256.748,256.748,0,0,1,306.042,252.423l2.266,20.469,45.084-45.084L339.4,213.819l-16.611,16.6A276.518,276.518,0,0,0,50.436,4c-6.846,0-13.752.247-20.509.742l1.444,19.737C37.654,24.014,44.065,23.787,50.436,23.787Z" transform="translate(252.52 -4)" fill="#576716"/>
        <path id="Path_32" data-name="Path 32" d="M304.334,281.927A256.757,256.757,0,0,1,48.728,53.29L46.462,32.821,1.378,77.905,15.367,91.895l16.611-16.6a276.518,276.518,0,0,0,272.355,226.42c6.866,0,13.782-.247,20.519-.752l-1.464-19.727C317.136,281.7,310.725,281.927,304.334,281.927Z" transform="translate(-1.378 252.317)" fill="#576716"/>
        <path id="Path_33" data-name="Path 33" d="M209.868,12C100.764,12,12,100.764,12,209.868s88.764,197.868,197.868,197.868,197.868-88.764,197.868-197.868S318.972,12,209.868,12Zm9.893,375.445V338.482H199.975v48.962c-90.287-5-162.687-77.4-167.683-167.683H81.254V199.975H32.291c5-90.287,77.4-162.687,167.683-167.683V81.254h19.787V32.291c90.287,5,162.687,77.4,167.683,167.683H338.482v19.787h48.962C382.448,310.049,310.049,382.448,219.761,387.445Z" transform="translate(93.088 67.147)" fill="#576716"/>
        <path id="Path_34" data-name="Path 34" d="M413.648,245.442C413.648,114.512,307.126,8,176.206,8A236.731,236.731,0,0,0,15.785,70.427L29.161,85.01A216.978,216.978,0,0,1,176.206,27.787c120.017,0,217.655,97.638,217.655,217.655a216.977,216.977,0,0,1-57.223,147.046l14.593,13.376A236.786,236.786,0,0,0,413.648,245.442Z" transform="translate(126.749 31.574)" fill="#576716"/>
        <path id="Path_35" data-name="Path 35" d="M27.787,176.215A217.039,217.039,0,0,1,85.01,29.16L70.417,15.784A236.829,236.829,0,0,0,8,176.215C8,307.135,114.522,413.657,245.442,413.657A236.749,236.749,0,0,0,405.863,351.23l-13.376-14.593A216.94,216.94,0,0,1,245.442,393.87C125.425,393.87,27.787,296.232,27.787,176.215Z" transform="translate(57.514 100.8)" fill="#576716"/>
        <path id="Path_36" data-name="Path 36" d="M68.574,101.968V21H48.787v80.968A29.608,29.608,0,1,0,86.54,139.721h41.394V119.934H86.54A29.651,29.651,0,0,0,68.574,101.968ZM58.68,139.721a9.893,9.893,0,1,1,9.893-9.893A9.9,9.9,0,0,1,58.68,139.721Z" transform="translate(244.275 147.188)" fill="#576716"/>
        <rect id="Rectangle_51" data-name="Rectangle 51" width="19.777" height="19.787" transform="matrix(0.981, -0.195, 0.195, 0.981, 239.201, 7.259)" fill="#576716"/>
        <rect id="Rectangle_52" data-name="Rectangle 52" width="19.787" height="19.787" transform="translate(187.812 24.863) rotate(-22.482)" fill="#576716"/>
        <rect id="Rectangle_53" data-name="Rectangle 53" width="19.787" height="19.787" transform="translate(140.829 52.174) rotate(-33.73)" fill="#576716"/>
        <rect id="Rectangle_54" data-name="Rectangle 54" width="19.787" height="19.787" transform="translate(100.077 88.132) rotate(-45)" fill="#576716"/>
        <rect id="Rectangle_55" data-name="Rectangle 55" width="19.787" height="19.787" transform="matrix(0.556, -0.831, 0.831, 0.556, 67.115, 131.342)" fill="#576716"/>
        <rect id="Rectangle_56" data-name="Rectangle 56" width="19.787" height="19.787" transform="translate(43.235 180.138) rotate(-67.492)" fill="#576716"/>
        <rect id="Rectangle_57" data-name="Rectangle 57" width="19.787" height="19.787" transform="translate(29.338 232.669) rotate(-78.755)" fill="#576716"/>
        <rect id="Rectangle_58" data-name="Rectangle 58" width="19.777" height="19.787" transform="matrix(0.981, -0.195, 0.195, 0.981, 343.438, 531.192)" fill="#576716"/>
        <rect id="Rectangle_59" data-name="Rectangle 59" width="19.787" height="19.787" transform="translate(392.265 518.444) rotate(-22.482)" fill="#576716"/>
        <rect id="Rectangle_60" data-name="Rectangle 60" width="19.797" height="19.787" transform="translate(437.668 496.386) rotate(-33.73)" fill="#576716"/>
        <rect id="Rectangle_61" data-name="Rectangle 61" width="19.787" height="19.787" transform="translate(477.843 465.898) rotate(-45)" fill="#576716"/>
        <rect id="Rectangle_62" data-name="Rectangle 62" width="19.797" height="19.787" transform="translate(511.37 428.168) rotate(-56.27)" fill="#576716"/>
        <rect id="Rectangle_63" data-name="Rectangle 63" width="19.787" height="19.787" transform="translate(536.821 384.604) rotate(-67.518)" fill="#576716"/>
        <rect id="Rectangle_64" data-name="Rectangle 64" width="19.777" height="19.787" transform="matrix(0.195, -0.981, 0.981, 0.195, 553.301, 336.938)" fill="#576716"/>
      </g>
    </g>
    <text id="TRANSPORT-3" data-name="TRANSPORT" transform="translate(533.703 3395.109) rotate(90)" font-size="59" font-family="Roboto-Bold, Roboto" font-weight="700"><tspan x="0" y="0">TRANSPORT</tspan></text>
    <path id="chuttersnap-gts_Eh4g1lk-unsplashbw-9" data-name="chuttersnap-gts_Eh4g1lk-unsplashbw" d="M0,0H510.782V846.756H0Z" transform="translate(960 3395.109)" fill="#fff"/>
    <rect id="Rectangle_46-2" data-name="Rectangle 46" width="419.751" height="21" rx="3" transform="translate(986.258 3849.043)" fill="#dbdbdb"/>
    <text id="How_many_hours_per_week_do_you_use_your_car_" data-name="How many hours per week do you use your car?" transform="translate(977.835 3445)" font-size="60" font-family="Roboto-Bold, Roboto" font-weight="700"><tspan x="0" y="56">How many </tspan><tspan x="0" y="126">hours per </tspan><tspan x="0" y="196">week do </tspan><tspan x="0" y="266">you use </tspan><tspan x="0" y="336">your car?</tspan></text>
    <text id="Hours" transform="translate(1297.835 3840.151)" font-size="30" font-family="Roboto-Medium, Roboto" font-weight="500"><tspan x="0" y="28">Hours</tspan></text>
    <path id="chuttersnap-gts_Eh4g1lk-unsplashbw-10" data-name="chuttersnap-gts_Eh4g1lk-unsplashbw" d="M0,0H400.835V878.607H0Z" transform="translate(510 4747.987)" fill="#fff"/>
    <path id="chuttersnap-gts_Eh4g1lk-unsplashbw-11" data-name="chuttersnap-gts_Eh4g1lk-unsplashbw" d="M0,0H425.322V878.607H0Z" transform="translate(577 4747.987)" fill="#b5b5b5" opacity="0.177"/>
    <text id="ENERGY" transform="translate(533.703 4686.109) rotate(90)" font-size="59" font-family="Roboto-Bold, Roboto" font-weight="700"><tspan x="0" y="0">ENERGY</tspan></text>
    <path id="chuttersnap-gts_Eh4g1lk-unsplashbw-12" data-name="chuttersnap-gts_Eh4g1lk-unsplashbw" d="M0,0H510.782V846.756H0Z" transform="translate(960 4686.109)" fill="#fff"/>
    <rect id="Rectangle_46-3" data-name="Rectangle 46" width="300.751" height="21" rx="3" transform="translate(1105.258 5140.043)" fill="#dbdbdb"/>
    <text id="How_much_do_you_spend_on_power_per_month_" data-name="How much do you spend on power per month?" transform="translate(977.835 4736)" font-size="60" font-family="Roboto-Bold, Roboto" font-weight="700"><tspan x="0" y="56">How much </tspan><tspan x="0" y="126">do you </tspan><tspan x="0" y="196">spend on </tspan><tspan x="0" y="266">power per </tspan><tspan x="0" y="336">month?</tspan></text>
    <text id="NZD_" data-name="NZD$" transform="translate(1011.835 5131.151)" font-size="30" font-family="Roboto-Medium, Roboto" font-weight="500"><tspan x="0" y="28">NZD$</tspan></text>
    <g id="noun_keys_789274" transform="translate(963.142 1598.139)">
      <path id="Path_37" data-name="Path 37" d="M12.27,180.675V126.689a54.963,54.963,0,0,0,9.242,12.36L90.15,207.687a54.775,54.775,0,0,0,35.239,15.967V335.42a5.635,5.635,0,0,1-1.653,3.982l-28.7,28.7a3.757,3.757,0,0,1-5.41,0L61.072,339.552a5.673,5.673,0,0,1-1.653-4.133v-14.2a6.574,6.574,0,0,1,1.916-4.583l15.253-15.253a2.517,2.517,0,0,0,0-3.569L63.025,284.252a8.678,8.678,0,0,1,0-12.247l13.562-13.562a2.517,2.517,0,0,0,0-3.569L61.335,239.62a6.612,6.612,0,0,1-1.954-4.659V215.2h-12.7A34.413,34.413,0,0,1,12.27,180.675ZM36.2,124.322a34.413,34.413,0,0,1,0-48.839l64.505-64.355a34.45,34.45,0,0,1,48.839,0l68.337,68.525a34.413,34.413,0,0,1,0,48.839l-8.979,8.979,85.205,85.055a5.635,5.635,0,0,1,1.653,3.945v40.424a3.757,3.757,0,0,1-3.757,3.757H251.694A5.673,5.673,0,0,1,247.712,269l-10.143-10.143a6.575,6.575,0,0,1-1.916-4.658V232.632a2.517,2.517,0,0,0-2.743-2.4H213.75a8.678,8.678,0,0,1-8.678-8.678V202.277a2.517,2.517,0,0,0-2.517-2.517H180.99a6.612,6.612,0,0,1-4.7-1.954l-13.938-13.938-8.979,8.979a34.45,34.45,0,0,1-48.839,0ZM87.971,88.444a18.025,18.025,0,1,0,0,.038Z" transform="translate(-157.174 -75)" fill="#beb891"/>
    </g>
    <g id="noun_Power_486723" transform="matrix(1, 0.017, -0.017, 1, 555.766, 4852.587)">
      <path id="Path_38" data-name="Path 38" d="M379.511,244.108a6.278,6.278,0,0,0-5.669-3.583H240.7L301.4,12.9a6.281,6.281,0,0,0-10.953-5.566L23.521,337.082A6.282,6.282,0,0,0,28.4,347.316H161.546l-60.7,227.622a6.28,6.28,0,0,0,10.94,5.579L378.728,250.76A6.3,6.3,0,0,0,379.511,244.108Z" transform="translate(54.283 0)" fill="#e6b547"/>
    </g>
    <g id="noun_Power_486723-2" data-name="noun_Power_486723" transform="translate(537.112 4811.708) rotate(-14)">
      <path id="Path_38-2" data-name="Path 38" d="M173.655,106.383a2.662,2.662,0,0,0-2.4-1.519H114.8L140.536,8.349a2.663,2.663,0,0,0-4.644-2.36L22.714,145.8a2.663,2.663,0,0,0,2.069,4.339H81.237L55.5,246.656a2.663,2.663,0,0,0,4.639,2.366L173.323,109.2A2.673,2.673,0,0,0,173.655,106.383Z" transform="translate(54.283 0)" fill="#e6b547"/>
    </g>
    <g id="noun_bill_374859" transform="translate(1739 5499)">
      <g id="Group_63" data-name="Group 63">
        <path id="Path_39" data-name="Path 39" d="M15236,16361v7116c0,496-147,955-385,1297-286,412-703,667-1183,667H1568c-480,0-897-256-1183-667C148,24432,0,23972,0,23477V9729c0-496,147-955,385-1297,286-412,703-667,1183-667H3712c684-1,1340-3,1980-5V9084c-639,2-1296,4-1980,5-1421,3-2001,5-2144,5-17,0-52,37-93,96-90,130-146,320-146,539V23477c0,219,56,410,146,539,41,59,76,96,93,96H13668c17,0,51-37,93-96,90-130,146-320,146-539V16361Zm-2821-5874c35,1,69,4,102,10a2270.394,2270.394,0,0,0,231,6c501-10,895-188,1171-457,273-266,435-624,470-995a1670.034,1670.034,0,0,0,7-186c-7-337-104-669-368-931-301-299-821-535-1663-648-18-1-35-2-53-4-197-25-394-55-588-94-540-108-1060-280-1497-578-661-451-1096-1139-1087-2219,0-44,1-75,2-92h0c39-756,465-1433,1076-1910,431-337,962-579,1514-678V664c0-367,298-664,664-664,367,0,664,298,664,664V1760a4680.718,4680.718,0,0,1,562,168c377,139,747,332,1018,563,278,238,311,656,73,934-212,247-566,300-838,142a713.83,713.83,0,0,1-97-69c-142-121-368-234-613-324-275-101-552-167-762-183h-8a733.73,733.73,0,0,1-81-5c-8,0-15-1-19-1-447-4-908,169-1264,447-325,254-550,587-567,932v3h0l-2,35c-5,559,200,902,510,1113,373,254,918,375,1479,446l20,2c22,3,43,6,63,11,1165,156,1934,532,2426,1020,545,540,744,1193,758,1844a3144.273,3144.273,0,0,1-12,337c-64,676-361,1330-865,1821-443,432-1042,735-1775,812v1005c0,367-298,664-664,664-367,0-664-298-664-664V11730c-246-44-478-100-721-173-418-124-853-290-1451-518-343-130-515-514-384-857,130-343,514-515,857-384l108,41c520,198,908,344,1250,446,338,101,645,164,1018,201ZM3298,19835c367,0,664,298,664,664,0,367-298,664-664,664H3014c-367,0-664-298-664-664,0-367,298-664,664-664Zm0-2165c367,0,664,298,664,664,0,367-298,664-664,664H3014c-367,0-664-298-664-664,0-367,298-664,664-664Zm8666,2165c367,0,664,298,664,664,0,367-298,664-664,664H5933c-367,0-664-298-664-664,0-367,298-664,664-664Zm0-2174c367,0,664,298,664,664,0,367-298,664-664,664H5933c-367,0-664-298-664-664,0-367,298-664,664-664ZM3298,15477c367,0,664,298,664,664,0,367-298,664-664,664H3014c-367,0-664-298-664-664,0-367,298-664,664-664Zm0-2165c367,0,664,298,664,664,0,367-298,664-664,664H3014c-367,0-664-298-664-664,0-367,298-664,664-664Zm0-2165c367,0,664,298,664,664,0,367-298,664-664,664H3014c-367,0-664-298-664-664,0-367,298-664,664-664Zm5651,4339c367,0,664,298,664,664,0,367-298,664-664,664H5933c-367,0-664-298-664-664,0-367,298-664,664-664ZM6451,13312c367,0,664,298,664,664,0,367-298,664-664,664H5933c-367,0-664-298-664-664,0-367,298-664,664-664Z"/>
      </g>
      <text id="Created_by_Mariia_Nisiforova" data-name="Created by Mariia Nisiforova" transform="translate(0 25456)" font-size="5" font-family="HelveticaNeue-Bold, Helvetica Neue" font-weight="700"><tspan x="0" y="0">Created by Mariia Nisiforova</tspan></text>
      <text id="from_the_Noun_Project" data-name="from the Noun Project" transform="translate(0 25461)" font-size="5" font-family="HelveticaNeue-Bold, Helvetica Neue" font-weight="700"><tspan x="0" y="0">from the Noun Project</tspan></text>
    </g>
    <g id="noun_Plug_75476" transform="translate(1760.076 5119.74)">
      <g id="Group_64" data-name="Group 64" transform="matrix(0.848, -0.53, 0.53, 0.848, -1208.146, 179.963)">
        <path id="Path_40" data-name="Path 40" d="M86.781,19.586C86.781,11.541,81.125,5,74.14,5,67.2,5,61.531,11.541,61.531,19.586v81.891h25.25Zm93.733,0C180.514,11.541,174.847,5,167.884,5c-6.986,0-12.642,6.541-12.642,14.586v81.891h25.273ZM131.023,288.717a67.362,67.362,0,0,0,67.351-67.367V159.684a25.861,25.861,0,0,0,15.239-23.543V110.975H28.411v25.166a25.885,25.885,0,0,0,15.25,23.549V221.35a67.361,67.361,0,0,0,67.362,67.367Zm61.452,144.121a63.5,63.5,0,0,1-63.4-63.39V328.057a14.533,14.533,0,0,0,8.67-13.262V296.841a66.343,66.343,0,0,1-6.721.355H111.023a62.834,62.834,0,0,1-6.721-.355V314.8a14.568,14.568,0,0,0,8.958,13.442v41.2a79.2,79.2,0,0,0,79.221,79.226,63.49,63.49,0,0,1,63.351,63.362h15.825A79.186,79.186,0,0,0,192.475,432.838Z" transform="translate(-28.411 -5)" fill="#60605a"/>
      </g>
    </g>
    <g id="Group_70" data-name="Group 70">
      <g id="Group_69" data-name="Group 69" transform="translate(0 -35)">
        <g id="noun_Tree_1663571" transform="translate(405.993 734.461)">
          <path id="Path_43" data-name="Path 43" d="M20.137,126.448A52.938,52.938,0,0,1,16,105.916c0-27.241,20.23-49.333,45.255-49.547,4.857-21.7,22.81-37.816,44.27-37.816a42.732,42.732,0,0,1,23.9,7.4c8.346-11.649,21.34-19.169,35.982-19.169,22.8,0,41.634,18.19,45.017,41.936a43.142,43.142,0,0,1,5.728-.428c25.192,0,45.623,22.195,45.623,49.568,0,.568-.061,1.116-.08,1.675,13.668,8.566,22.885,24.566,22.885,42.932a51.248,51.248,0,0,1-16.256,37.91,52.954,52.954,0,0,1,.288,5.458c0,27.369-20.423,49.568-45.615,49.568a42.578,42.578,0,0,1-24.245-7.776c-10.157,11.052-22.567,7.232-26.215,21.713-14.725,58.364,8.554,92.627,8.554,92.627H126.062s26.238-67.844,4.845-83.337c-5.387-3.894-10.952-9.858-16.108-16.37a42.877,42.877,0,0,1-26.378,9.249c-25,0-45.278-21.87-45.577-48.954-18.229-6.5-31.394-25.1-31.394-47.077A52.158,52.158,0,0,1,20.137,126.448Zm155.53,101.518a148.4,148.4,0,0,0,16.263-6.088,50.5,50.5,0,0,1-13.02-23.45,64.483,64.483,0,0,1-16.593,11.632C159.9,221.957,161.165,232.556,175.667,227.966Zm-23.1,2.169a102.375,102.375,0,0,1,.6-16.465,59.048,59.048,0,0,1-14.657,2.4C145.318,236.018,153.588,255.73,152.569,230.135Zm-10.831,17.037a61.294,61.294,0,0,1-12.092-24.109,50.171,50.171,0,0,1-6.8,11.171C132.957,241.591,141.738,247.173,141.738,247.173Z" transform="translate(0 0)" fill="#b9b9b9"/>
        </g>
        <g id="noun_Tree_1976422" transform="translate(385 786.419)">
          <g id="Group_66" data-name="Group 66">
            <path id="Path_42" data-name="Path 42" d="M189,289l-52,1c9-20,12-55,11-68-18-11-37-27-51-47-9,2-18,1-26-4-26,13-63-1-63-26,0-19,22-33,45-31,10-28,41-37,61-17,18-10,39-2,46,17,8,0,16,4,20,11-23,5-41,25-32,46a68.9,68.9,0,0,1-8,3v29a67.262,67.262,0,0,0,11,7l1-32a61.005,61.005,0,0,0,16,12l1,8,3-6c2,0,3,1,4,1s3,0,4,1l-7,15,1,5,30-15-1-5c2-1,3-1,5-2l1,3,7-3c3,1,6,2,9,2l-48,30C176,249,180,270,189,289Zm1-228c-7-24-48-24-58,5-9-4-27,4-30,17,5,2,9,5,13,8a36.256,36.256,0,0,1,48,19c10,0,17,6,22,14h8c11-28,42-37,64-19,4-1,0-28-22-27C229,59,207,51,190,61Zm112,68c-6-19-28-28-45-18-21-20-52-11-61,18-27-2-55,17-42,43,9,17,38,24,60,13a33.265,33.265,0,0,0,37-1c18,10,49,4,52-12a22.2,22.2,0,0,0,22-22C325,138,314,128,302,129ZM104,173c9,9,19,21,30,26l2-25c-9,1-19,0-27-4A21.859,21.859,0,0,0,104,173Z" fill="#959595" fill-rule="evenodd"/>
          </g>
        </g>
        <g id="noun_Tree_1976422-2" data-name="noun_Tree_1976422" transform="translate(926.48 865.257)">
          <g id="Group_66-2" data-name="Group 66" transform="translate(8 43.581)">
            <path id="Path_42-2" data-name="Path 42" d="M131.092,210.482l-35.363.68c6.121-13.6,8.161-37.4,7.481-46.244-12.241-7.481-25.162-18.362-34.683-31.963a23.087,23.087,0,0,1-17.682-2.72C33.162,139.075,8,129.554,8,112.553,8,99.631,22.961,90.11,38.6,91.47c6.8-19.042,27.883-25.162,41.484-11.561,12.241-6.8,26.523-1.36,31.283,11.561a15.679,15.679,0,0,1,13.6,7.481c-15.642,3.4-27.883,17-21.762,31.283a46.855,46.855,0,0,1-5.441,2.04V152a45.741,45.741,0,0,0,7.481,4.76l.68-21.762a41.487,41.487,0,0,0,10.881,8.161l.68,5.441,2.04-4.08c1.36,0,2.04.68,2.72.68a4.089,4.089,0,0,1,2.72.68l-4.76,10.2.68,3.4,20.4-10.2-.68-3.4c1.36-.68,2.04-.68,3.4-1.36l.68,2.04,4.76-2.04a19.857,19.857,0,0,0,6.121,1.36l-32.643,20.4C122.251,183.279,124.971,197.561,131.092,210.482Zm.68-155.055c-4.76-16.322-32.643-16.322-39.444,3.4-6.121-2.72-18.362,2.72-20.4,11.561a38.557,38.557,0,0,1,8.841,5.441A24.657,24.657,0,0,1,113.41,88.75c6.8,0,11.561,4.08,14.961,9.521h5.441c7.481-19.042,28.563-25.162,43.524-12.921,2.72-.68,0-19.042-14.961-18.362A20.867,20.867,0,0,0,131.772,55.427Zm76.167,46.244c-4.08-12.921-19.042-19.042-30.6-12.241-14.281-13.6-35.363-7.481-41.484,12.241-18.362-1.36-37.4,11.561-28.563,29.243,6.121,11.561,25.843,16.322,40.8,8.841a22.623,22.623,0,0,0,25.162-.68c12.241,6.8,33.323,2.72,35.363-8.161a15.094,15.094,0,0,0,14.961-14.961A14.685,14.685,0,0,0,207.939,101.671ZM73.286,131.594c6.121,6.121,12.921,14.281,20.4,17.682l1.36-17c-6.121.68-12.921,0-18.362-2.72A14.865,14.865,0,0,0,73.286,131.594Z" transform="translate(-8 -43.581)" fill="#c4c4c4" fill-rule="evenodd"/>
          </g>
        </g>
        <g id="noun_Tree_1976422-3" data-name="noun_Tree_1976422" transform="translate(601.48 786.419)">
          <g id="Group_66-3" data-name="Group 66" transform="translate(8 43.581)">
            <path id="Path_42-3" data-name="Path 42" d="M189,289l-52,1c9-20,12-55,11-68-18-11-37-27-51-47-9,2-18,1-26-4-26,13-63-1-63-26,0-19,22-33,45-31,10-28,41-37,61-17,18-10,39-2,46,17,8,0,16,4,20,11-23,5-41,25-32,46a68.9,68.9,0,0,1-8,3v29a67.259,67.259,0,0,0,11,7l1-32a61,61,0,0,0,16,12l1,8,3-6c2,0,3,1,4,1s3,0,4,1l-7,15,1,5,30-15-1-5c2-1,3-1,5-2l1,3,7-3c3,1,6,2,9,2l-48,30C176,249,180,270,189,289Zm1-228c-7-24-48-24-58,5-9-4-27,4-30,17,5,2,9,5,13,8a36.256,36.256,0,0,1,48,19c10,0,17,6,22,14h8c11-28,42-37,64-19,4-1,0-28-22-27C229,59,207,51,190,61Zm112,68c-6-19-28-28-45-18-21-20-52-11-61,18-27-2-55,17-42,43,9,17,38,24,60,13a33.265,33.265,0,0,0,37-1c18,10,49,4,52-12a22.2,22.2,0,0,0,22-22C325,138,314,128,302,129ZM104,173c9,9,19,21,30,26l2-25c-9,1-19,0-27-4A21.86,21.86,0,0,0,104,173Z" transform="translate(-8 -43.581)" fill="#acacac" fill-rule="evenodd"/>
          </g>
        </g>
        <g id="noun_Tree_1663571-2" data-name="noun_Tree_1663571" transform="translate(525.619 906.765)">
          <path id="Path_43-2" data-name="Path 43" d="M151.076,64.934A24.042,24.042,0,0,0,129.365,30.88,24.022,24.022,0,0,0,93.372,16.1,24.044,24.044,0,0,0,50.6,27.164a24.715,24.715,0,0,0-3.024-.208A24.09,24.09,0,0,0,23.492,51.043c0,.276.032.542.042.814a24.056,24.056,0,0,0-3.5,39.285,23.7,23.7,0,0,0-.152,2.652,24.088,24.088,0,0,0,24.085,24.087,23.832,23.832,0,0,0,12.8-3.778c5.363,5.371,11.915,3.514,13.842,10.551,7.775,28.362-4.517,45.012-4.517,45.012H95.146s-13.854-32.968-2.558-40.5a44.728,44.728,0,0,0,8.505-7.955,24.008,24.008,0,0,0,37.993-19.294,24.048,24.048,0,0,0,11.99-36.985Zm-82.12,49.332a82.712,82.712,0,0,1-8.587-2.958,24.084,24.084,0,0,0,6.875-11.4A34.22,34.22,0,0,0,76,105.565C77.282,111.346,76.612,116.5,68.955,114.266Zm12.2,1.054a45.818,45.818,0,0,0-.316-8,33.652,33.652,0,0,0,7.739,1.168C84.979,118.179,80.613,127.758,81.151,115.321Zm5.719,8.279a28.926,28.926,0,0,0,6.385-11.715,24.111,24.111,0,0,0,3.592,5.429C91.506,120.887,86.869,123.6,86.869,123.6Z" transform="translate(0 0)" fill="#b9b9b9"/>
        </g>
        <g id="noun_Tree_1663571-3" data-name="noun_Tree_1663571" transform="translate(1039.993 849.929)">
          <path id="Path_43-3" data-name="Path 43" d="M17.144,85.225a34.7,34.7,0,0,1-2.712-13.459c0-17.857,13.261-32.338,29.665-32.478C47.281,25.065,59.05,14.5,73.117,14.5a28.011,28.011,0,0,1,15.665,4.851A29.055,29.055,0,0,1,112.368,6.785c14.944,0,27.291,11.923,29.509,27.489a28.279,28.279,0,0,1,3.755-.281c16.514,0,29.906,14.549,29.906,32.492,0,.372-.04.731-.052,1.1,8.96,5.615,15,16.1,15,28.142a33.593,33.593,0,0,1-10.656,24.851,34.71,34.71,0,0,1,.189,3.578c0,17.94-13.387,32.492-29.9,32.492a27.91,27.91,0,0,1-15.893-5.1c-6.658,7.245-14.793,4.741-17.184,14.233-9.653,38.258,5.607,60.718,5.607,60.718H86.579s17.2-44.472,3.176-54.628A57.669,57.669,0,0,1,79.2,161.142,28.106,28.106,0,0,1,61.905,167.2c-16.385,0-29.68-14.336-29.876-32.09-11.95-4.26-20.579-16.456-20.579-30.859A34.19,34.19,0,0,1,17.144,85.225ZM119.1,151.771a97.28,97.28,0,0,0,10.661-3.991,33.1,33.1,0,0,1-8.535-15.372,42.269,42.269,0,0,1-10.877,7.625C108.757,147.831,109.589,154.779,119.1,151.771Zm-15.141,1.422a67.109,67.109,0,0,1,.392-10.793,38.706,38.706,0,0,1-9.608,1.576C99.2,157.049,104.623,169.97,103.955,153.193Zm-7.1,11.168a40.178,40.178,0,0,1-7.927-15.8,32.888,32.888,0,0,1-4.46,7.323C91.1,160.7,96.855,164.361,96.855,164.361Z" transform="translate(0)" fill="#9f9f9f"/>
        </g>
        <g id="noun_Tree_1663571-4" data-name="noun_Tree_1663571" transform="translate(1106.993 799.651)">
          <path id="Path_43-4" data-name="Path 43" d="M18.447,103.175a42.642,42.642,0,0,1-3.332-16.539c0-21.943,16.3-39.738,36.454-39.911,3.912-17.477,18.373-30.461,35.66-30.461a34.421,34.421,0,0,1,19.249,5.962c6.723-9.383,17.189-15.441,28.984-15.441,18.364,0,33.536,14.652,36.261,33.78a34.751,34.751,0,0,1,4.614-.345c20.293,0,36.75,17.878,36.75,39.927,0,.458-.049.9-.064,1.349,11.01,6.9,18.434,19.788,18.434,34.582a41.281,41.281,0,0,1-13.094,30.537,42.656,42.656,0,0,1,.232,4.4c0,22.046-16.451,39.927-36.744,39.927a34.3,34.3,0,0,1-19.53-6.263c-8.181,8.9-18.178,5.826-21.117,17.49-11.861,47.013,6.89,74.612,6.89,74.612H103.771s21.135-54.649,3.9-67.129c-4.339-3.137-8.822-7.941-12.975-13.186a34.538,34.538,0,0,1-21.248,7.45c-20.134,0-36.472-17.616-36.713-39.433C22.054,159.246,11.45,144.259,11.45,126.56A42.014,42.014,0,0,1,18.447,103.175Zm125.281,81.774a119.539,119.539,0,0,0,13.1-4.9,40.676,40.676,0,0,1-10.488-18.889,51.942,51.942,0,0,1-13.366,9.37C131.025,180.108,132.047,188.646,143.728,184.949ZM125.123,186.7a82.465,82.465,0,0,1,.482-13.263A47.564,47.564,0,0,1,113.8,175.37C119.282,191.434,125.944,207.313,125.123,186.7ZM116.4,200.42A49.373,49.373,0,0,1,106.658,181a40.414,40.414,0,0,1-5.481,9C109.325,195.924,116.4,200.42,116.4,200.42Z" transform="translate(0)" fill="#b9b9b9"/>
        </g>
        <g id="noun_Tree_1663571-5" data-name="noun_Tree_1663571" transform="translate(1176.993 756.622)">
          <path id="Path_43-5" data-name="Path 43" d="M19.562,118.536A49.438,49.438,0,0,1,15.7,99.362c0-25.44,18.892-46.071,42.263-46.271,4.536-20.262,21.3-35.316,41.343-35.316a39.906,39.906,0,0,1,22.317,6.912c7.794-10.879,19.929-17.9,33.6-17.9,21.291,0,38.881,16.987,42.04,39.163a40.289,40.289,0,0,1,5.349-.4c23.527,0,42.607,20.727,42.607,46.29,0,.531-.057,1.042-.074,1.565,12.765,8,21.372,22.941,21.372,40.094a47.86,47.86,0,0,1-15.181,35.4,49.456,49.456,0,0,1,.269,5.1c0,25.559-19.073,46.29-42.6,46.29a39.763,39.763,0,0,1-22.642-7.261c-9.485,10.321-21.075,6.754-24.482,20.278-13.752,54.505,7.989,86.5,7.989,86.5H118.485s24.5-63.358,4.525-77.827c-5.031-3.637-10.228-9.207-15.043-15.288a40.042,40.042,0,0,1-24.634,8.638c-23.343,0-42.285-20.424-42.564-45.718-17.024-6.07-29.318-23.445-29.318-43.965A48.71,48.71,0,0,1,19.562,118.536Zm145.247,94.807A138.589,138.589,0,0,0,180,207.657a47.159,47.159,0,0,1-12.16-21.9,60.22,60.22,0,0,1-15.5,10.863C150.081,207.73,151.266,217.629,164.809,213.343Zm-21.57,2.026a95.61,95.61,0,0,1,.559-15.376,55.144,55.144,0,0,1-13.688,2.245C136.468,220.862,144.191,239.271,143.239,215.368Zm-10.115,15.911a57.241,57.241,0,0,1-11.293-22.515,46.854,46.854,0,0,1-6.354,10.433C124.923,226.067,133.124,231.279,133.124,231.279Z" transform="translate(0 0)" fill="#9f9f9f"/>
        </g>
        <g id="noun_Tree_2564274" transform="translate(615 884.714)">
          <g id="Group_67" data-name="Group 67" transform="translate(4)">
            <path id="Path_44" data-name="Path 44" d="M103.941,117.5c1.277.958,2.235,2.235,3.512,3.193,1.916,1.916,5.428,5.747,8.3,4.151,4.47-2.235,9.579-13.091,13.091-17.562s7.344-5.747,12.133-7.663c.319,0,.639-.319,1.277-.319v-.319a3.449,3.449,0,0,1,.958-2.235,12.812,12.812,0,0,1-.958-4.79V91.64c-.958,0-1.916.319-2.554.319a20.557,20.557,0,0,1-8.94,2.235A18.21,18.21,0,0,1,118.31,89.4c-3.832,2.554-8.94,3.832-14.369,3.832h-2.235v.958a2.41,2.41,0,0,1,1.277,2.235,2.76,2.76,0,0,1-.958,1.916,8.5,8.5,0,0,1,.958,3.832v.319a11.972,11.972,0,0,1,3.512-.319c6.386,0,11.495,2.874,11.495,6.386s-5.109,6.386-11.495,6.386h-1.277a9.446,9.446,0,0,1-.639,3.193Zm21.393,26.183a4.05,4.05,0,0,1-.319-1.916H123.1a11.2,11.2,0,0,0-.319,8.621c1.277,3.832-.958,8.621,0,13.73.639,2.554,1.277,6.705.319,9.26a13.4,13.4,0,0,0-.639,8.621c.639,4.151,1.277,4.151,0,8.621a14.355,14.355,0,0,0,.319,7.344c.958,4.47,1.6,5.428,5.428,8.3a11.026,11.026,0,0,1,4.375,7.509c6.5,7.378-1.146,6.064-6.291,6.221-.639-.319-25.225-1.277-27.46,0-1.6.958-1.916-9.9.958-15.007,2.554-4.79,2.235-3.832,2.235-9.579V187.43c-.319-4.151-3.832-5.109-1.6-10.856s1.6-5.109.958-11.176c-.319-4.151.639-5.109-.639-9.26-.958-3.193-1.6-5.428.958-8.3,1.916-1.916,1.916-2.235,1.277-5.109a22.125,22.125,0,0,1-.958-6.386v-2.235a32.1,32.1,0,0,0-2.235-9.9A9.5,9.5,0,0,1,95,125.8h-.958c-.639,7.344-7.983,13.411-16.923,13.411-8.3,0-15.007-4.79-16.6-11.176a27.444,27.444,0,0,1-7.663,1.277c-7.344,0-13.411-2.874-13.411-6.386a4.538,4.538,0,0,1,.639-1.916c-5.428-1.6-9.26-4.151-10.856-7.344H25.074C13.26,113.671,4,110.8,4,107.285s9.579-6.386,21.074-6.386a40.71,40.71,0,0,1,6.386.319,5.026,5.026,0,0,1-2.235-4.151c0-4.151,6.067-7.344,13.411-7.344a18.959,18.959,0,0,1,9.9,2.554,25.363,25.363,0,0,1,10.218-1.916c-5.109-2.235-7.983-5.109-7.983-8.3a7.278,7.278,0,0,1,.958-3.512,27.942,27.942,0,0,1-.958-7.663v-.639a18.845,18.845,0,0,1-4.47.639c-7.983,0-14.369-5.428-14.369-11.814,0-6.705,6.386-11.814,14.369-11.814h1.6c.319-12.133,6.067-21.713,12.772-21.713h1.277C66.583,11.176,75.843,0,87.338,0c10.218,0,18.839,9.26,21.074,21.393a23.467,23.467,0,0,1,9.579-2.235c9.26,0,16.923,5.428,16.923,12.453a11.479,11.479,0,0,1-.639,3.512c6.705,2.874,11.814,7.663,13.73,13.73,1.6,0,3.512-.319,5.109-.319a78.494,78.494,0,0,1,8.94.639,23.609,23.609,0,0,1,13.411-3.832c10.218,0,18.839,6.067,21.074,14.049a30.257,30.257,0,0,1,9.579-1.277c9.26,0,16.923,3.512,16.923,7.983a4.615,4.615,0,0,1-.639,2.235c6.705,1.916,11.814,5.109,13.73,8.94h5.109c14.688,0,26.821,3.512,26.821,7.983s-11.814,7.983-26.821,7.983a64.126,64.126,0,0,1-7.983-.319c1.916,1.6,2.874,3.193,2.874,5.109,0,5.109-7.663,9.26-16.923,9.26a23.917,23.917,0,0,1-12.453-3.193,38.529,38.529,0,0,1-14.369,2.554h-2.235c0,6.705-4.151,12.133-8.94,12.133s-8.94-5.428-8.94-12.133h-4.79c-10.537,0-19.158-1.916-22.99-4.47-.639.319-1.277.319-1.6.639-8.3,4.151-9.579,5.428-12.772,14.369a84.4,84.4,0,0,0-4.151,14.688,4.552,4.552,0,0,1,3.832-1.916h.639c.319-3.832,3.832-6.705,8.621-6.705,4.151,0,7.663,2.235,8.3,5.428a13.722,13.722,0,0,1,3.832-.639c3.832,0,6.705,1.6,6.705,3.193a1.173,1.173,0,0,1-.319.958c2.554.639,4.79,1.916,5.428,3.512h2.235c5.747,0,10.537,1.277,10.537,3.193,0,1.6-4.79,3.193-10.537,3.193h-3.193c.639.639,1.277,1.277,1.277,1.916,0,1.916-2.874,3.832-6.705,3.832a8.7,8.7,0,0,1-5.109-1.277,15.468,15.468,0,0,1-5.747.958h-.958c0,2.554-1.6,4.79-3.512,4.79s-3.512-2.235-3.512-4.79h-1.916c-5.428,0-9.9-1.277-9.9-2.874a1.173,1.173,0,0,1,.319-.958Z" transform="translate(-34 -28)" fill="#cbcbc8" fill-rule="evenodd"/>
          </g>
        </g>
        <g id="noun_Tree_2564274-2" data-name="noun_Tree_2564274" transform="translate(1223.238 799.21)">
          <g id="Group_67-2" data-name="Group 67" transform="translate(-26 -28)">
            <path id="Path_44-2" data-name="Path 44" d="M268,163.159c-2.054,1.33-3.6,3.1-5.65,4.434-3.082,2.66-8.731,7.981-13.354,5.764-7.191-3.1-15.409-18.178-21.058-24.385s-11.813-7.981-19.517-10.641c-.514,0-1.027-.443-2.054-.443v-.443a4.483,4.483,0,0,0-1.541-3.1,15.7,15.7,0,0,0,1.541-6.651v-.443c1.541,0,3.082.443,4.109.443a37.324,37.324,0,0,0,14.381,3.1,32,32,0,0,0,20.031-6.651c6.163,3.547,14.381,5.32,23.113,5.32h3.6v1.33c-1.541.887-2.054,1.773-2.054,3.1a3.66,3.66,0,0,0,1.541,2.66,10.535,10.535,0,0,0-1.541,5.32v.443a22.2,22.2,0,0,0-5.65-.443c-10.272,0-18.49,3.99-18.49,8.867s8.218,8.867,18.49,8.867h2.054a11.581,11.581,0,0,0,1.027,4.434Zm-34.412,36.356a4.943,4.943,0,0,0,.514-2.66h3.082c1.541,3.547,2.568,6.65.514,11.971s1.541,11.971,0,19.065c-1.027,3.547-2.054,9.311-.514,12.858,2.054,4.877,2.054,7.094,1.027,11.971-1.027,5.764-2.054,5.764,0,11.971,1.027,3.547.514,6.651-.514,10.2-1.541,6.207-2.568,7.537-8.732,11.527a15.076,15.076,0,0,0-7.038,10.427c-10.451,10.245,1.843,8.421,10.12,8.638,1.027-.443,40.576-1.773,44.171,0,2.568,1.33,3.082-13.744-1.541-20.838-4.109-6.65-3.6-5.32-3.6-13.3V260.256c.514-5.764,6.163-7.094,2.568-15.074s-2.568-7.094-1.541-15.518c.514-5.764-1.027-7.094,1.027-12.858,1.541-4.434,2.568-7.537-1.541-11.528-3.082-2.66-3.082-3.1-2.054-7.094a26.864,26.864,0,0,0,1.541-8.867v-3.1a39.524,39.524,0,0,1,3.6-13.744,16.98,16.98,0,0,0,7.7,2.217h1.541c1.027,10.2,12.84,18.621,27.222,18.621,13.354,0,24.14-6.651,26.708-15.518a50.535,50.535,0,0,0,12.327,1.773c11.813,0,21.572-3.99,21.572-8.867a5.734,5.734,0,0,0-1.027-2.66c8.732-2.217,14.895-5.764,17.463-10.2h6.677c19,0,33.9-3.99,33.9-8.867s-15.409-8.867-33.9-8.867a75.754,75.754,0,0,0-10.272.443c2.568-1.773,3.6-3.547,3.6-5.764,0-5.764-9.759-10.2-21.572-10.2a34.3,34.3,0,0,0-15.922,3.547,46.507,46.507,0,0,0-16.436-2.66c8.218-3.1,12.84-7.094,12.84-11.528a9.068,9.068,0,0,0-1.541-4.877A33.82,33.82,0,0,0,347.1,98.427v-.887a34.811,34.811,0,0,0,7.191.887c12.84,0,23.113-7.537,23.113-16.4,0-9.311-10.272-16.4-23.113-16.4h-2.568c-.514-16.848-9.759-30.149-20.545-30.149H329.12C328.093,15.518,313.2,0,294.708,0c-16.436,0-30.3,12.858-33.9,29.706A42.742,42.742,0,0,0,245.4,26.6c-14.895,0-27.222,7.537-27.222,17.291a14.018,14.018,0,0,0,1.027,4.877c-10.786,3.99-19,10.641-22.086,19.065-2.568,0-5.65-.443-8.218-.443-5.136,0-9.759.443-14.381.887a42.488,42.488,0,0,0-21.572-5.32c-16.436,0-30.3,8.424-33.9,19.508a55.9,55.9,0,0,0-15.409-1.773c-14.895,0-27.222,4.877-27.222,11.084a5.781,5.781,0,0,0,1.027,3.1c-10.786,2.66-19,7.094-22.086,12.414H47.144C23.517,107.295,4,112.172,4,118.379s19,11.084,43.144,11.084a119.391,119.391,0,0,0,12.84-.443c-3.082,2.217-4.623,4.434-4.623,7.094,0,7.094,12.327,12.858,27.222,12.858a43.274,43.274,0,0,0,20.031-4.434,70.761,70.761,0,0,0,23.113,3.547h3.6c0,9.311,6.677,16.848,14.381,16.848s14.381-7.537,14.381-16.848h7.7c16.949,0,30.817-2.66,36.98-6.207,1.027.443,2.054.443,2.568.887,13.354,5.764,15.409,7.537,20.545,19.952a105.078,105.078,0,0,1,6.677,20.395,7.757,7.757,0,0,0-6.163-2.66h-1.027c-.514-5.32-6.163-9.311-13.868-9.311-6.677,0-12.327,3.1-13.354,7.537a25.267,25.267,0,0,0-6.163-.887c-6.163,0-10.786,2.217-10.786,4.434a1.492,1.492,0,0,0,.514,1.33c-4.109.887-7.7,2.66-8.731,4.877h-3.6c-9.245,0-16.949,1.773-16.949,4.434,0,2.217,7.7,4.434,16.949,4.434h5.136c-1.027.887-2.054,1.773-2.054,2.66,0,2.66,4.623,5.32,10.786,5.32,3.082,0,6.163-.443,8.218-1.773a28.449,28.449,0,0,0,9.245,1.33h1.541c0,3.547,2.568,6.651,5.65,6.651s5.65-3.1,5.65-6.651h3.082c8.732,0,15.922-1.773,15.922-3.99a1.492,1.492,0,0,0-.514-1.33Z" transform="translate(-4)" fill="#cbcbc8" fill-rule="evenodd"/>
          </g>
        </g>
        <g id="noun_Tree_1976422-4" data-name="noun_Tree_1976422" transform="translate(1172 786.419)">
          <g id="Group_66-4" data-name="Group 66">
            <path id="Path_42-4" data-name="Path 42" d="M189,289l-52,1c9-20,12-55,11-68-18-11-37-27-51-47-9,2-18,1-26-4-26,13-63-1-63-26,0-19,22-33,45-31,10-28,41-37,61-17,18-10,39-2,46,17,8,0,16,4,20,11-23,5-41,25-32,46a68.9,68.9,0,0,1-8,3v29a67.262,67.262,0,0,0,11,7l1-32a61.005,61.005,0,0,0,16,12l1,8,3-6c2,0,3,1,4,1s3,0,4,1l-7,15,1,5,30-15-1-5c2-1,3-1,5-2l1,3,7-3c3,1,6,2,9,2l-48,30C176,249,180,270,189,289Zm1-228c-7-24-48-24-58,5-9-4-27,4-30,17,5,2,9,5,13,8a36.256,36.256,0,0,1,48,19c10,0,17,6,22,14h8c11-28,42-37,64-19,4-1,0-28-22-27C229,59,207,51,190,61Zm112,68c-6-19-28-28-45-18-21-20-52-11-61,18-27-2-55,17-42,43,9,17,38,24,60,13a33.265,33.265,0,0,0,37-1c18,10,49,4,52-12a22.2,22.2,0,0,0,22-22C325,138,314,128,302,129ZM104,173c9,9,19,21,30,26l2-25c-9,1-19,0-27-4A21.859,21.859,0,0,0,104,173Z" fill="#a8a8a8" fill-rule="evenodd"/>
          </g>
        </g>
      </g>
      <path id="Path_45" data-name="Path 45" d="M9266.176,936l126.2-32.408s9.376-14.009,72.617-10.749,190.607-6.483,255.569,0,202.813,7.011,263.425,0,277.407,7.348,294.182,7.348,93.616-3.631,132.209,0S10523.8,936,10523.8,936Z" transform="translate(-8911 140)" fill="#d9d9d9"/>
    </g>
    <rect id="Rectangle_75" data-name="Rectangle 75" width="419.751" height="21" rx="3" transform="translate(986.258 5209.043)" fill="#dbdbdb"/>
    <text id="I_am_not_sure" data-name="I am not sure" transform="translate(1011.835 5201.167)" font-size="30" font-family="Roboto-Medium, Roboto" font-weight="500"><tspan x="0" y="28">I am not sure</tspan></text>
  </g>
</svg>
